<mxfile host="app.diagrams.net" agent="Mozilla/5.0 (Windows NT 10.0; Win64; x64) AppleWebKit/537.36 (KHTML, like Gecko) Chrome/139.0.0.0 Safari/537.36" version="28.1.2">
  <diagram name="第 1 页" id="T45kBfJJLmu7k1SrXwTD">
    <mxGraphModel dx="1426" dy="751" grid="1" gridSize="10" guides="1" tooltips="1" connect="1" arrows="1" fold="1" page="1" pageScale="1" pageWidth="4681" pageHeight="3300" math="0" shadow="0">
      <root>
        <mxCell id="0" />
        <mxCell id="1" parent="0" />
        <mxCell id="JWv6UWEkngOyCVGFAQf5-2" value="" style="shape=image;verticalLabelPosition=bottom;labelBackgroundColor=default;verticalAlign=top;aspect=fixed;imageAspect=0;image=data:image/png,iVBORw0KGgoAAAANSUhEUgAAA7oAAAEKCAIAAACzM75mAAAQAElEQVR4AezdCdwf09UH8Mq+iH15tVRRtRSl1mijIvaE2JcUoVQ1tYtGUcS+r6Uaa5RQWwmJWCKIfa+1tLa2alci++b9Jqem47/MTJLnSZ4nmefzc5177u+ee+6ZmXvP3HmStPgy82fq1KljxoxRZrK+REAbNWpUNi1agxxyRTlx+s+UKVNCP378+NGjR9PpAgSIJlUIGX/s2LFJNZTVJRprX3zxRXVTtWby5MlsVusrNAadMGFC4lVFa7rK4Lhx49KamjIaJwWzZmuFctKkSUVsmjgPkSu6V1dxxNykqpvSGjRhLDK0XoZmk5ANTooky9k0rWiQ66RxOVlkaDbR2CRkI5x0jbJpWlnjACEbaJxUZtOiVcCLxId7psPV6JVRohUxiObRLsI0lqeGA4RssMZsEScLGhQcThYZmmOeryJDc9Klyb3TGORkEYNonCxikE3rQBGm20wk8XPBYBEnBefzzz/PtRYEd28I2WVBJ83X6MpsawhoIplNi9Ygh5xdutaQzdEqhq4js+QMoAl4wfi4b9nMsBZNBuWhYEY1o2TQE5FBiCY0TgpmVLNLj0MRmybOQ+Rsa1px3LomRc4AmjAWGZoRQ7NJyAYnRZLlbJpWNMh10ricLDI0m2hsErIRTrpG2TStrHGAkA00TiqzadEq4EXiwz3T4Wr0yijRihhE82gXYRrLU8MBQjZYY7aIk9kGW3yjKf20bNmSO2alBPeoEsRivvnmazH9RxVUgVCijEAZgTICX0Wg/H8ZgTICZQTKCJQRaPgINK10WT4cU/Q2ANLlSKAJ9GQglCgjUEagjEAZgTICZQTKCMzVESgn14Qi0LTSZYFp1apVJM0OjxPZ6bKmEmUEGjACY8aOfeKpZ26/867b7hg6eMgwIGQDGU2ZTdOKBoRs4Nx51z3KbFq03jH07mTohx99/IWXXmnAaJSmygiUESgjUEagjEAZgXoRaHLpsizZEbJEWUmOc2VCvQmU+jICMxSBDz/6eJ9fHLjymuuvvs6Pdu+932G/Pvrwfsf0O/aEXx9zPCEbRxx1LFrf3/z2a7R+x1RX0Y48+rhqfYUG7ejjT1JW6GtWOZnY3Gu/X263y0+/u9raq6y1/i8OOnyGIlCSywiUESgjUEagjEAZgRmKQJNLl3k/+aufSZMmxe8xS53pS5QRmJUIfPHF6M232XGDn2z20suvbrX5po89cPebrzzXrPHI8Lt23XH7p55+dvlV15LEe25mJT5l3zICZQTKCHyjDEEZgTICtSLQFNNlyXEcJyvJrVu3JtRyvtSVESgagdf/9vcfrN9l7NhxF5x9+lMPDz/vzFOWXGKJop2bKm/JJZc44dijHnvwnr6HHjhk2D0/7rbVO//8V1N1tvSrjEAZgTICZQTKCDTXCDTFdFly3KpVK1lyq69+j7m5RrfR/C4Nz1AEnn/hxS177rxp15/cO+TWbbbeYob6Nn1y2zZt+uy/7yPDh02cOGmbHXd76+13mr7PpYdlBMoIlBEoI1BGoBlFoCmmy80ofKWrTT8Cb7719o67995y824DLj6/fbt2Td/hmfNwkUUWfvSBuxdfbLGf7rP/6NFjZs5I2auMwByJQDloGYEyAmUEmngEWozL+5kyZUoeZdzYsWMnTpz45Zdf5jKDMHXqVF1CrlciTJr+U4+Q6OMvoFYmmnoCewWdZM3E+VDPVKJn09yTaj1hwoQJkydP+6dP6hESPZqhk2qGEDYzCNFkLjxEjmpGiWM6+BkcTQg8xCTnAs2McmkImPwkZKMgLZxU7rDbXm3btr3k/LOb+KM46+61a9t26J//9Nlnn+++989NPDuMWl0XVzz3Jsfx1Ch1yYUbA7OITaMXcZLBIjSDWlWKME0hmEWcLHJDMhhOFjEokvhFwMkiNB6KZO7QTDEoSoRsMOhWzOZEq0FNRxnVjJJNj20GIWkSyUSuJxiRQUPXI1ToTVyXCmVFFYGHUKGvrrrHOKmsbqrQsFbQSdbY5EOFheoqm+Zera/QuNAF7wo0Q1d0r1kNmzWb0kpz4SFyWllTxjEd/JqtiRKBh5iJJkNAM6MMQtKEyc+kWk8oSJshJ3nIbO7lZpOHynq+JXrWMJNqPUHAi0eSk/i5TuJgFnESDbmIQU8NZr1ZpPWmg1nEptGLOMlgBq2FTCIbLVoEJ4vVrl27Vq1aWWSzSKm2+eabT5eUorbIJtRu+7q2ZcuWbdq0+bquRg3N0DUaaqlMPNfJNm3a8BBqGfiarnXr1kb/mqpOBc3QdRq/pg6bfPiatlaFzYJOFqEZkYds1hqqUsdgQSYacmX/qjqOiVepKxXh5DH9T3H3v/DkSDfnvABRuOX6a95+5x/3PzCSnA0XUZRyb3LRFjpltrVoZbMIE8flNnr0yiiDlstkcIYebQaLTNzNluFb0mTWBQ3aCTCTjhlCwemYuBDlzsVAnEQmZMOUOZnNSVo5mTu0+bIJSa8MgZMZrdFkRNbck1HNLYs4yQibQMiFgJtUEZqhc2lBMHHzCrleaVAeQj1ConehOZlUMwQ0Q2cQkqawyYdEU09gs6CTRWhG5CGb9YZL6xksyERDTvetKeOYeM2mtDKcRE4r68kFhzYug8p6dhI9GvAh0dQUmHJDGr1ma4WSQfzcexKHQWVF9+qqi8jDIgY92kUMGoLNIkwcThpdl2wErR7TcDkQ3xzG9GY0mC7mFGjCkUOa3owJ08WsAqegQVaQlblAK2JTcJlCVuaiOK0g04iY4QO5Hopwkr7IkFTrCThQrzWtR4O0pqZchJN0LEj+17v/Hjrs3gvPPcOT72rOI1jt+6vsuN02B/c9KglXhiCSkEGIpiKcYCqRc+/JoClzwVouBwEtQM6FO6FFi1xWiwY3GEMWCQ6m0ZW5QINcGoJZN+zQrLHJchEUdLI4rTizoJMMQu5ccAoaZApZmQu0IjYFnClkZS6K0woyjYgZPpDroQgn6YsMSbWegAP1WtN6NEhraspFOEnHgmQ0SHplCGiQG8kMCxVNrEEDGmTfDckmIRcFaexgAiEbRTiJBeQiE0dLumQIOTRBaRAYpqAdTMglF+HkGqkmODipVtbUFHSAwYJMoxRnIjcsGnzohjVY3JqAF4zMaWeft+wyS2/a9ScF+XMNrf+xv7GCXHDxpUVmVDzyRay5Og1u0Li5NnMJjMwo2IQivQrSiphqVI6r06j2axpvjOAUt4kJNR1LK4tw0vyCcvGAF3SAwYJMHhZnIjcsGnzohjVY3JqAN2xkilsLJ6PM7TXffPPlcmaUUHBoZhuDyWwuXJ3iQ+daQ2BQWc9m+Uf9BKfEXBiBsePGPfzoE/36HupVci6cXuaU2rRpveN221x+9bWZrLKxjEAZgTICZQTKCJQRKBSBMl0uFKaS1OwicPivj1lm6W9tuVm3JuT5bHTl9JOOHzNmzKWXXTUbxyyHKiNQRmDOR2Dq1KlTpkyZPHkyYc57U3pQRmBuiUCZLs8tV7Kcx9cjMOKhhw/65c+/rpu3ahtv9ON7ho+Yt+ZczraMwLwdgSnTfyTKPitPF6c0YjxK02UE5qUIlOnyvHS155m5vvzqX821x1ZbKudZHHnogS+98uoXX4yeZyNQTryMwLwQAclxTJMALVq0aN26davp/8hXy5Yto6ksywiUEZjFCJTp8iwGsKl3nzf9u+DiSzt0aN+uXdt5c/ox628vs4wPso8+/kRUy7KMQBmBuSYCDo9lxhBHyARTi1K6TJ5vvvnKXFkcSpQRaKgIlOlyQ0WytNOEIvDs8y/svH3PJuTQnHClY8cOm3fretOtg+fE4OWYZQQaJQKlURGQFnsTTifKsmf6QFrGhNCXZRmBMgKzEoEyXZ6V6JV9m2gEPv981IHz9i8ux4X57grLP//CCyGXZRmBMgJzRwQkyibSqlWr1tP/9Sty5MRxrhytlEAGQokyAmUEZjECjZEuz6JLZfcyArMUgTffetsOsegii8ySlbmi89pr/eDT/3w2bvz4uWI25STKCMxzEXBU7CB50vQfsvlHOd/0H1UpMpEgYyYTwAKIpiQnSnKJMgJlBGY6AmW6PNOhKzs20Qi88NLLs9mzjz/++IADDlBmjzt27Ni+ffs+88wzyAMHDswmN0jrit9dgZ3PP/9cWWJmI1D2KyMwuyMQya4MWK5MjuHJISgTJTkS4tDE7ytHR6VMOjRoJcoIlBGYlQi0GJf3M3HixDyK06vx3n49nLnMIBSxKbeYMP0numSU48ePL2KQBctNQScL2kTjo5LxbOBgmlQujZNOBbJp0coghJxRGjqQwYkmtCIGcXjIz+iVXSJDNkdrDK0kZ8O1zjb4yGOz+w+3LbbYYp07dx4yZEj2o9ihQ4cll1xSeemll3744YevvvpqNn/WWxdeaCFGPvr4k5ohFcYiAUfz1Ah7TSMVSrQiNnGYVVZ0r64yWK2s1qBxks3qpmoNcrWyWsO9QHVThab4uJys6FuvWtBJQ0PuwmIUS7TpELJhXIlXNidpZTORMwQeQgYhaTJ6ItcTzMK4DRtJAeQh1Bs00Ru9iJP4VsiCTlbb5M+YMWNGjx7NJXaAQTSgIcOYMWOUgKyMqlbBAV34SdBUD6yhWczrEdJ6liGtqSmzGajZmlaiFTGIw0N+pvvWk5GhXmuij6GViaaeIIYFDXIyO9rJEAxCUs0QeAgZhGjCgZAzSoNOd3JSBidpMvEiNnEKMo2OnNivJ6B5atisR0jr0YrYxGFWme5bU2awpj6ULdyFGRBcb64ZhGhyl3iLbd++fVSzy4I2GbFqAyEXRs/luAbm0rZt21wmAieL2MSUjhRxMgwKlC4ZQHMY0Lp16wxO0oTMyVyb+Dw0fUI2cDBzDRqXk5BtLVrZFKJcm8iGRiZkAwcyOKNHj1lyySUM2qgYOHDg2qmfC6f/JIquXbvKhp039+zZM1ESbrjhhj322COEPn364DSqkx07dujYocP7739QM1wR8NxLg+apUdY0UqE0HVcn1yYOZkXfmlV3OHLNprSStXbt2hV0kk33cEEnc2ncsLAoc8FJi6Shc5kIni/M3NEFh1lMXbIRTuYaFBxvdNmmklZO5hpEDicJ2TCLcDKbZkROimQ2LVoL2kR28wAhF0bP5ZiyuXhwcplBwLedgw2bRpXnAVUIjZKToAkT5AECghCaEBBcGnI2dEErt5uMKAk4ZBCiScCF0RWPanbpgcXP5mh1dTCLjB60uA10rAem2rRpU+TuZSFsErLBSXNRZtO0onEg10k0T41Sl1yEk7k2jYuZaw1BcJAJNdFi/syfjh07tmrVKpPy30Y0j+5/K5n/sxZ7RDMp/220/wncfyv1/xdOKutTprUYN+7maZW8/1hz9+ex5mfT/cfPIkwGO3XqlM1kMC5YNi1abRhFbJqLMCJHr4wSB7NTpxwn0dx8/MwwlTQJjhB16pRjs7iTPGQzsV8tTJg48f+WWJyHjY3zzjvvmTo/W2+9dYy+5pprjhw5wvGYnAAAEABJREFUMmHttttu1157bVRHjBixyiqrBK2ybLh6x44dPh/1RXWUaETSpSRkA83a4SJm06IVrYhN9zlmx44do1dG6Q5HzmWiWX+4mmEqaUJmsFOnnHvSRDiZ9MoQrH4MZhCiybiSG9OJanZpkSxiM5wswrT6ZY8YreYiaQs5uzQom5065YQRzQNb5NJgGj170GhFc7lDzi5FWySzOdE6Q05yNXrVK40rOB6ceoREz5TghJNkF1RfrZ06dVIFMqhqMnF+LrDAAjSaaJBVF1xwQVWgB0o3my7kDKBZxuUHGZykyVhFbPLBdJCTjvUEHMxcJ9Esh/ysZyetFxzPbK7N4k7ykM30EDVlHGGMi1iTkFaGTT6kldWyq4Np+tVNFRpT5kCFsrqKI691C1U3VWtc6yJDh5PKagsVmoJzQfPUmFFF95pVtIJOYuYG3BBmbS71mC3chdmIOzWboxXNCwEhFxaRXA4CGpuEgsDPZTJY0ElMyDVYZNC0kSJ840K616zLRcadoVF4CDPUZbaRfZqcDafLvXv3FgHnxNVwtNyjR4+aqfASSyzx0Ucf6ehwGgiNDcvEqC++yAh+kXuj4FNjFNNR5toMGmYugplrkJ1gEnJRnFlk3BiuINPQxZks55IZLELDAeRcg2gFLzdTDOJnAw2hCHOGaMWdZDYXnCzoYZjCDyGjZLCmkxV6HBqZlq0aGJR4KWMIrWRACA2yKqa8BwiaaKoR/Gp9WsMapDWzLtcYd9aM8hBmzUaj9+YhFBkGDXKjlEtIxsIMJJp6gnGhXuvM6WfIID9zR0nu+VxmDJ1rM2i51hCCWc9g+Uf9xKfEXBWBcePGz56/FmOjjTaKc+KKMn1s/Pzzz3fp0iVS6oceeigC/fHHHz/22GPdu3ePaqOWnTrN/693/92oQ5TGywiUESgYASdn4JDPF+ToIjkg2KplyUAGgj2bAGQlhCap0ugLNAyqMqIsUUagjEBjRKBMlxsjqs3S5lzjdPv27T759NPGns7xxx8fSXC9UnLsIHnFFVeMX8Zw3syl5ZZb7q233rrooos6d+682GKL0TQ2ZtvLQ2NPpLRfRqCZRkA6KzmW0YIpOAxWAr0yEDk0WasD40h8Iz+WENODqlYgg+7AJqjSIxBKlBEoI9AYESjT5caIamlzTkagQ4cOH3zwYWN70L9//zhUPnj6D/m8884jEgLOnqXLHTt25E/izOKLL3711Vd/8MEHO++8c6JsVGHqlClt27Rp1CFK42UEmmAE5rhLclmQywJnyBBJrTI0ysiMCbJkelW5NSZNRfqrKa1p1aoVPhD0TTfpW6KMQBmBho1AmS43bDxLa3M+Am1atx49Zuzs8WPs2LEvvvjieuutVzHcwIEDHT87SF5++eU1oY0ZM0auTO7UqdMhhxwih8ZxAk3TqBg1evTSS3+zUYcojZcRKCOQRCAyXVVZMqhGOkuTIFJbx8YQsqYgK8ky4yjlwRJick3oC0GuSSiVZQTKCDRUBOZsutxQsyjtlBH4XwRsMKPHjPlfvdGkjz/+ePfdd1999dVr/qm+ZZZZRia92mqrHXDAAV26dBk9erSkuU+fPmuttdYFF1xA/vDDDyOBbjQHpxn+4ovRyyz9rWlS+V8ZgTICjRMBWa+0GCS7QDCORFYplwVCVKMpXdUaCbEmfZlSDTJaiTICZQSaSATKdLmJXIjSjQaLwLe+uVRj/zKGZFcSvO+++15xxRXxV2TwXu579dVXx68yE775zW8uueSSqpdeeukzzzzjRLl///6XXHKJslevXhLohx9+WBcdGw/8tAG3KX8Zo/FC/DXLZWVejIA0N37z2LNGFgIprzJS3pBVpcXKIBDSVUwv+Q6hgaCKUKKMQBmBJhWBMl2ew5fD6mmRhTnsx1w0/IYbVP5qRINPrkOHDpLg22+/Pf3H9ZwxjxgxQmYMhK233vrII49MhtY6ePBgJc1G0/9KjYru9A2ON956m83Z8/eEGKhEGYF5MAKxekem62BYBKzqykiICVFNkuBIoKMaJQ7gA6FEGYGmEYHSi69FoEyXvxaO2VaxgFpkJ02apCTPtnHnhYFW+/6q88I0i8zxjTffQltwgQWUJcoIlBFo8AhE7ivNBcalvyHEqq5KGRxCVKNJ1UFypNfkEmUEygg08QiU6fLsvkCWznSWHGtrlLPblbl0vEUWXqhD+/b33v/AXDq/r08rs/bMs39ZacXvtmxZPuaZYSobywjMWgSs6omBFi2mPW6hCTnJj1VbtmypTMilUEagjEBzicC0B7u5+NpM/bRuWi4DphCZsRWzZcuWTheiGqXWEg0SgYUWWvD3A65sEFPN2sh9Ix7o3Pi/mtKsQ1Q6X0ZgViKQLN1W+LBjwSdENVqVoSRY+ZUIJWpHoNSWEWiqESjT5ca9MhbN5E+BTJn+YzxZslzZuklOllFyiYaKwM479Hzlr681lLVmauf9Dz744MOPtt5i02bqf+l2GYFmEQGLOT+t7lb7KFVBVWm1b9WqVZkiC0WJMgLNOgItxmT+xJ+sV2aypjVOmDBB5jdNyvuPNetIHmta+8TpP9OkzP8YtEgpM1nTGtkr6OT48ePZnNYn8z+DsomcZo0ePTqqo0ePHjVqFBkBTd6sSkmTQJWRpEqOX9VINBmCmLOZQYimcePGYfIhqhkljtH5kMEZM2YMgnExs2nRauJFmJzE5ED0yijRgA8ZnJ2274nzzHPPN+uHcxadf/Ptdzq0b7/KSt+rFyghKhJwHA+ssp6dtN6NUYTphnRXuOjpvjXlggYN6tEuYtAoplOEyUkhws8FJ7NvyLAQThZh4ptOESYPRRI/F8Vn7cbLtRYETCtYyBllQSfN16qrzDAVTS6N+IScXbJm4tmcaOUkhJxRMljhpHuJUhfL+xdffOEqA01xJ/HZZCEbbPIQOZumlUvuitxLwyBakaHZNB33OSEbhsYs4iSO0fmQbRDBuJjZtGgVnyJMTmJyIHpllGjAhwyOJgROYpJzwcMizHBSmWuQNTHPvdzm61oj5xpEMB18QjZwTMf0s2lajYtMyAaOB1aZTYvWgk4KDieLRDLbYIsOeT9endu3b5/H6tCmTRsv0Lk0hHbt2jlY7dhx2r92ppoBNr2aZxCiiXsMhpxdMliQGU5mW9NqaDbbtm0bMoHDNLqHRtmpU6f555+foEmZC0cRYp5LQzAccseOOZHkDJeQdckGThEnzdq4kG0tWg1dxCYn0TgQvTLKMMiHDM43l/o/G/klf7hCOc/igAMP//GPOmdESSSLBNyl8dQUYRrLXVGEaWiXO/sisgYFDRrU+sNVXXJhOkWYbHIy1xqCB7bIXBjkZBEmm5jKXEQkc2kIZl1kaAY9MvhFgNmxY876w44wAiEXBSPJyYLxcaFNvGPHLCfDKzaLOCmGDEaXpFxggQU6Tf8hxGqPxmA1M+mSFsLJtKamHDbdRTVb00oGi8xFF8+XmBNyYVzkjh1zImloE0cuYrCIk2ZtXMg1iGDoIjY5iVbEyTDIB8YzgMBD5AxO0oQGSbWewEk0ZT1CokeDjh3zL41rjZl0zBBMp0h8cBg0/QxT0YSGHHJGab6emiJMRgo6aWiXu4iT2QZbWHSy4SU+m5C0WjoTOVtgM5eMANl2ktaCTDRIes26kFjzUuK9zbzYdLGVAXdnUk3I0aSsp6nWI1cDLVDdVKEpSNPLFJAJ2cCBbE60FqQFuWDJZhLVel2O7XfEU88+9/EnnyLPg/jk00994zhgv73rxYdeWJS5QINcWhCKM/GLkHEAORcFaewUZBZ8FhgsjuI2OQm5lnEglzZDhIIG0aCg5YJM8WlYg6yxmTs6AiAXQT0mPRjO8VjYUQ2hQcoZslaEHJwocz1ECxRk5tIQxIpNQjZwIJsTrQVpQS5Yspm73TCFBoRcoEFD0dhhDQjZwAlk06K1ONNFjC7ZJYPZhGhFg5Bzy+JMpoqQcQC5JnJ+dzkCoX8DIvzINYiW4uSIyFzNIU1vblhaxbgeKm8nQDCaUrqMQzYukEF1NsOgUGTQgjSmijNNHL+hwJqhldkGd991p9Gjx1x25cBs2tzauunW23/rm0utucbqTXaCuVcw8dzlTuTZKRgXGnZEBqFhbRa0JuBQkFyE1uAT4V6D22QQcqdThJMYQeZqUg1BigwOTYDGym/9r6ZpqkZBWs1xq60lGvxEnp2CcaHIiAVpTBVnFgwmm0XAmqGVRcgFOQWtGbegQbQZIuMXQWPYLDJuY3AKxtzQGbPOSZd1LlERAWvipOk/sSxGa4TY+qiKAIQ0QmMNTSujV/ELme5bytkRaNWy5dFHHnb9jbeMHj06mzn3tf7ns88+HzXq8t9fOPdNbW6ZUTmPuS0CTkks70Dw5Tf2grltkuV8ygjMwxEo0+UZu/iy3iRLJk+ePDn6R+KriUYJhGhSSoiRCfXWUAStJRo2Aj232Xrql1+efMa5DWu26Vvb+af7LL7YYiut+N2m72rpYRmBuSYClneIvWCumVQ5kTICBSIwT1DKdHnGLrM8WAeHB0CQ5kYeHEukqtMFSDeRg0OPQHY2TaAHSojuqiUaMALt27U7+fijb7zlz6/+9fUGNNvETV38h8vffOvtIX/+UxP3s3SvjEAZgTICZQTKCDSXCJTp8sxfKWmuzpFAE6S8NE4XgECTNEmRo+rIOZRJuowMWks0RgS22nzTjbv8qOcuP20M403Q5l9fe/2cCy4+94yTF1l4oUr3ynoZgTICZQTKCJQRKCMwUxEo0+WZCVsku0maKxsmt2rVShnmEkE1yISApjQzlGXZeBG48g+/a9++3UprrDthwoTGG6UpWP700/9svf2uu+20g5eEpuBP6UMZgTICZQQaKwKl3TICszcCZbo8Y/GW7OogP1ZCVJOEmD7kKJ034wQwZcmtW7d28JzWR2tZNmoE/vLEyG9965trdf7J0LvvbdSB5qDxQX+6eZ0fb7Jt961OOv7oOehGOXQZgTICZQTKCJQRmPsiUKbLM3ZNI9OVFke3qEZyPGX6z+SvfhCkyEqceTZLNv0mgnvvvHWHbbc58LBf77h776efnXv+tT+34rB7h2/wk82O7X9K/2OPOv+sU5tIwEs3ygiUESgjUEagjMBcE4EyXf7apZR8TPrqh5y0SYhVZcJy31CqEpIq2bFx5MfI9ElVU4k5HgGX4+QTjrn2qj/8/c03d9ljn402677vAQddeMkfrrj6j7fdMbTZYdCNt5x74SW7995PotznkL7LL7fcvXf+ec9eu87xOJcOzE0ReP+DD7MfjTvvuiebEK2DhwyDkLPLggbRhgy7N9tU0oqcyBkCDyGDcPudd81NF7ecSxmBMgIzFIEyXf5fuGTDDojVJbtKcuTEhGiSB9NIvLQSlDTK4BM0OUiGVqnfY6Yv0UQisOH66z332IMvPvXwbjvt8PRzz5//u0tPOfPcw/sd0+xw7Akn/+7Sy/7xz3d/1nuPl555dNDVAyXlANkAABAASURBVFZY/jtNJMilG3NNBDbsukX2o3H08SdlE6L1yKOP63fsCSFnlEccdexRv+2vzOBoQkArOHSQ9crFr485HjJoh/36aPn0XHNxy4mUESgjMEMRaPHVWWrt/0sTZYTK2s1faRHklAb+SpHz/yI2mZCSMkvIhtExldNpdQsENEMnjIkTJybyhAkTJk6caDizwAHk8ePHI+io1EQDBBrksWPH6qVKiZANXYrTjJ5tLVoNXYRpaExl9MoocYow0YxbZDrGYhCZkA02MZXZNK3GLcJkyrjIuqShb5s2bX7+s72efvj+1/7yZOCVZx+DkDPKvz7/xMvPPPrqc49ncKIJ7eRjjxx5751RrVe+9PQjzz/+YJGhWWCzgvnA3YP37b1H61at0hM0cbNWppU1ZaGAmk1pJY5IKtPKejJmwaELOslgvbHSeu5hFhlar2DmktnEAV2yUXAuDMbQ2dai1UJUZGg2IbpklwWHNhdDhynCuWec8uYrz5UQAdEQFhdFiJTkDCCgiXkGJ2kKclKtJ6C51sp6hESPY/SkWk8IWkEnDV2EySamst6giR6nCBPNuEWmwzKDyIRssImpzKZpNW4RJlPGRdYlFwWZbBYZ2nAFaQzyEHTJBSfxc2k4DCpzmZyEIjRDF2EyhVlw6IJOMshsPbRgJRvWCK5nc6IVM4Tckk+5NhHQck0hoBUfGpNlya5MN0pVRgRdyZQSHBiHTK+LY2MagiZIfukCx0FyotdUD5hQrzWtR4O0ZtblggbRYNaHq7ZQxCwOVPet1hSnFWRWD1FPU9Ag2m233TZgwIB6dhI9ZiLnCkXIOJBrCiHu27j/VesBIZj1CGm9oSGtqScXpxVhhpNFmPwJmi7kDKBBBiFpKh4fzNxxw+xXQ0etbokGdZtTDYZO1eqK3EuYhBLpCIiaaNMQiqAgk03INRiXpggTB3INIqABoQFR0CAaNOC4iakiZnEg6ZIhFKcVZGaMVdFU0CAauD0quldX0aqV9TRFyDhQz0JaH89CrpMIwUz3rScbGuq1pvXFaRnMFm0zf5zDcT2TMq0RLbLGaZW8/5Clnnmsae1swjQp87/WrVvLX5XBIqSroVTSs2ZouS8f2k//Cb2yXbt2ygRBRks0FUKHDh06duzIBiZUtFZXcWLc6qa0xoich7Synhw267UmejaLDI3PoBDhkzOAxiBmBidpQkPWJdHUFBAwlTVb00ocBnOdRBBGSPetJxsa6rUmekOjKRNNPWHcuHFvvfXWXXfdVY8Qek6aC5tRzS7RQJdsGvfYVGbTtAoOgxV3Pn0FjOipKWJQx7BJyAZrnGQ5m6aVQeRcJsIMOVnEpuAAy9zIhqGL0FgryDRcQaaJMFtkdAaZzQWDyZpPKJGOgOBA3JPZkURzXTCzadGKXORxcJXZRI5eGSVOQYM8hAxTSVPYTKr1BE4WGVp3Bk0Hn5wBNAYxMzhJExqyLommpoCAqazZmlbiMJjrJIIwQrpvPdnQUK810RsaTZlo6gkFaZw0F+R6dtJ6NNAlrayWucemsrqpQiM4DLZr97VEq4KjakQrVRGDyGGTkA3WOMlyNk0rg8j1mPm/u8z19HpRTy5I0x0TCNnAkeYrs2lJKzIkVS8WIRNAU5iKdxexg9BoxQw5WlUhuoRetSa0otVsqqnEr6lPK4tw0vwicsPanCFrQY4yw9VcQtJXwIuTCzLZTOxnCGEtygyapqefftp9lb6dKGcRnDQ0FLFThIYDRazNEKfBbTIIM+RDLplBKELL5SAUMZXQCpLxi8BdgVbQZpDxS8xiBHIDHoQZCnh0yXAMoWENGotNZcOiYW2GNRO3ovrYq8zwNshR5tIyCEmTcXOtJeSCTDaTLhlCWIsyg5Y0FWcmXTIETjIIGZykqQgNB5IuDSU0uE0GoaZ7+elyzW5NTSkvgXiQvB9wz8UGTxc9EJJWrzg4lIAJmmgiRpMmTVJV0idKcokyAsUjcMsttwT5ggsuCKE5laWvZQTKCJQRaAIRsInbjm3fYL9WbQJOlS7MoxGYS9JleW0gLiOZ4AFTOkWOqqdONZ0Ty5u1UkYTOVo9lpSqQChRRmCGIjB27Nhnnnkmutx4440hlGUZgTICZQTKCBSPgH3ZJm47TmfJsUcXNzKNWf5XRqAhIjCXpMseITmxpyueK9UIjnyXXqmqCQhoSrlyQqMHVcrWrVtHqSNaiTICMxqB1157LekyYcKEUaNGJdVSKCNQRqCMQBmBmhGwC9udAwh2ZKWNOHZkMoSSUKKMwGyOQLNPlz1aXkBFjRAge8CUaYTG00gZZZC9ucbjF0qtEBpCidkWgblpoAsvvDCZjvvqmmuuSaqlUEagjEAZgTIC1RGwI9vK7cgJbMStW7d22kUIfuzjIZdlGYHZHIFmny57tGQkohYPkkeODBXVeN6iNWnSlxxvrgS9SpQRmPUIvPDCC2kjw4cPT1dLuYzA3BSBjz/++IADDlCalDKRVavx6quvnnXWWdV6HY8//vixY8cSevbsuXbqh0F6XR566KGBAweSaVLt08SuXbuyjKO71ptvvnma9uv/6Y6QBo2xdEkrG0ou7RSJQOzdmATbMUFyDASbNSUhEHLs46EpyzICszkCzSxd9sx4qCZNmkSISCXPTyJ4zDRFNWTVyIb1ArIUORBPJkKJMgINEoH0b2KEwX/84x8fffRRyGVZRmAui8Arr7yy5JJLLrbYYual7NWr15AhQ8gByWjkwVF98skn119//ZDrlUsttdTdd9/9zPQfAuMVTBr66e3TipEjR0qMgxPOLLHEEj169JjW9tV/qkHgDHLgsMMO+9e//rXFFltEVak1aGXZqBGwC8c+7jg59mgaI9qO7c4Q2zdNgiAk1VIoIzD7I9DM0uXkKfKwVQfLY0YZz1XISZVAAwRgZ775phXkEmUEGjACJ5xwQrW1YcOGVStLTRmBuSACTzzxxOqrr+58V7oJctALL7yQEJC/duvW7fDDD3cqLHW+9dZbEaIpShkqyFnvvPPOLl26XHXVVe+9955qtBI++OCDcePGOTPWkeX999//jTfeoA+CUi9ZcUTSlxzDhVyvPO+88/Bron///vV6lfqGioDTriRLtgcnZu3O6WqiL4UyAk0kAs0sXRY1L6AeKjlxdcbseUOIt1VCRVVH0FdTiTICjRSBffbZ59RTTz3xxBMdkm2wwQZkWHnllRtpuNJsGYGvIjAH/i8DlrxuvPHGI0aMkIA69F1llVWuvfZacmCj6T+dO3d++umnnTrvsMMOoY/y4IMPlt1KUqWw6667rnNij48Hh50gEJwlt2/f/tJLL8XBHzBgwAorrEAfhCiNblzOyK1XXXVVgZB8y6QTqFImeOihh5KmRJDxx290JLRSaLwI2J3jAy/BKMpkd7a5A2W5WQtCiaYTgeaXLoud50opLQZCguTpCn08gUFOOKVQRqBRI7D55ps7+tpss80WWGCBb3/722SQCjTqoKXxMgJzJAIyYIfBydAXXXSRjDN+9UhK6tg4mnr37i2Lfeyxx7p37+6YuW/fvmjw4osvrrPOOjgvvfTSa6+9tvvuu0t5VQsiPYQuaWd6TP9lDOk1SKlVEdIIvQRdUyTfkXOnOaU8ixGwETtLhvTZVmzTdmfGEYCQRmgqNu7oFWl0mlzKc28EmtzMmmW67MnxYiqWHsKK5yeesVCixTOJWaKMQBmBMgJlBBowAlJbGXCnTp3CpuTV4a7T3yeeeIJ8zjnnHHTQQUmTXNYJ8WKLLSZdfv/99+mdB5999tkdOnRgR0fH0Mcdd9zll18u//aGGYe+BE3IgQsvvBCHhh7hsMMOc2xMgKOOOipxhikn1tElSlVK8vzzz7/44osTmNKrS5cuLIQ11YEDB2oq0SARkPXaoMMUefLkySHblwmaaJRAoAnYu5HJNffuaNJaoozA7I9AizGZP5Y2d/O4ceMyWWPQJkyYwPtsWrQisxlydjlx4kQvpjU5jIwfPz6auOd5o1GN8osvviBXQNPEiRM9jRX6mlXG2azZlFaGTXNPK2vKBQ2aiykXjE9xmzxErulYWolmdD6kldUyAg8xq5uqNWGzWl+hYdPVQa7QV1fRQOSrm9IaBos76VoXmQ6bhi4SSTR3Wq5NpjiJnPa8nsxJ/HqtiZ6TmMpEU0/gnoDnRtKgdillDTtVqhi6iE2jF3GSwSJD43CyiEEuizlmQSdzaQxykkFCNkTbXZHNSVpNx9CQaGoKbIpkzaYKJYOiVMRgspITMuAUebvttpOA4jgqdpbcq1cvSfAbb7whV77iiiskx5qMOHz4cOfKZNBLEF5++WVy4IEHHujWrRtZX1nvUkstdd5553Xt2tXRr4PhTTfd9C9/+UvPnj0lx46EETDjPBjN2TAOOMAOZ1iT+AbkxBCyUhKvb4ApvQzBQlhTZSRa65Wi7UK73CZVEd6KKoLn2kwr9DWrrgubNZvSyrDJh7SyplzQoLm4eTwONY1UKIvb5CHyqFGjWBAEIIwePTr2ZbOIqim7J/mQNNEHR/dQfvbZZ/g8RMakx8mAoc0ogxBNTPEKOaoZJRrwIYOjiUFOFhka2VyKMNk0dO6UGUQrMhemOImsSy44iZ9L4ySmMpdpypzMjaRB3RXKXIMIMXQRm0Yv4iSDGUO3aJ/347y2Xbt2eaz2bdq0scTk0oLgxdGhQsj1SgQ2nSLXI3Sc/qO1Xbt2CY1MUw+tW7f2aluvNa1v27atifMhrayWDcdJqG6q0ITBCmV1lUFzEZ/qpmpNkIs4aeIcqLZQoTERzAplddW4ggPVTdWasFnQSeRqCxUanIJOCqNgVnSvWWUQcp0UQzRlTSNpJZo7TZlWVstMcTKXFh3NBb+Ik5iuUfTKKNEEM5dpUHPBzDCVNLGZaxCZzYJMNOQis+ZkkaGN7tYtwjQuJn4uCjophhbJ3LnEcG6MELJLNo1exKa5mFG2Na3uRkkeAXibAdlt/CrFK6+80q9fP/koMk86d+68ww47RK5M8/TTTy+//PJRtbFJo4899lhJs0NlrYFll102hChXXXVVq7uDZEnzbbfd9s1vfvP222+XHGvVUYJ++umnG04C7WyYIJl2ZhzObLzxxhJfwF955ZXXXXfd5HepEZxMM5LAcTJr/E802YJou3MEXHByIZLuyVwaguvi6ggdOQOG5gBkcKIpDIacUTJoLgXvtCAXcdLEOZAeV5BVE88ZoWEQjZBuookqI8GnERzAdFdozYAuOrKfwdFkaDRk8tdQVcHBrFJXKhgURsGsbKhVZxBynTRxNGUtG1/TofGziEFOIn+tc52KuRi6iE1M069j5n9qNE7mMg3qqcH8X8/6Epu5BvVmsyATDbnerEUvB5YP3meTEAAzmxataIAf1XolDmTTXHjdcazvBAjBnMnVwIRqfU0NJtRsSpQIgURTTzAXQK5HCD1CIKrZJYOAn01DAMxsmlY0AcxlouEodckFWhEyWqCgwSK0ggaijzIUAAAQAElEQVSZ4iHgkzOAEMjgRBNrgajWK8Oash4hrQ+DRciYRWg4kB6ipowTqNlaoYyh8Sv0FdUgRFnRVFFlEHKZCIGK7jWrYRC/ZmuiLEjDx1TmGkTABORcoOFDNhMhkE3TyqASWZmNhKNLLt577z3nymecccbqq68e5J133vnFF1903qwqJ3a0TEOGoMmzJbVSXtkz5U477SQNIqQh/1a95JJLJLvpZFq6jLzkkkvSy4nBCfGaa66JnIbRn3jiic0333yNNda44YYbuKHVcM4sJdZkHsrF7YtOlwcPHqwJx0QIDrcQakJkwCKZHcBoxYSQc0tMyKYhBLJpWsN5ZHIGEAIZnKRphmwiR0f2CcmOTE+WDCk1VUSSBjkBDqZEWa+KpoRTIaAVIaMFKrpXV9EYrNZXaNACFfqaVQYBv2ZrokQIJJp6AmuBeoTQhzVlVLPLMFiEjFmEhgPZg2rFCZBzEUPjZzODEGU2k0Goy9SWAXdzRuvMNXEFcvsW4cS6hgnhqkfLM6asth+EKKtbKzQFacm4Fd2rq5iB6qbZoCk+NGZBf4ozCxosSHNpDK0syC9CK2jNuEWs4RRnIhdHI5kt4kCDD10w5nxr8KHZLALjQhFmcQ6DUJzfgEwBhwY0GKaWWmqpm266SQasKtc84IADVPfdd1/5rpx1yJAh3bp1k5VKRp0BO2aOX3jA33bbbWv+2T759xZbbKFpv/32O+qoo9K/QeHz66BBgxiU9e6xxx7OlaFLly7PP/+80RPocsEFF/zqV7+ikVsfdNBBhx56KGecIsuz45xbnn322We/+eabsmccebxWfK7aUAkZcAVzIxmEKDNMRVNBWpFxwyBmIKqzuYyhI4yxR3MgqslM6cmYSq0EZQDTJu4szD6e6BMhOLOt5J6hlQ04YkFrxi04KGagIL8gjc2CzAanNfjQBWNuIhlDN8s/6mdKMHny5ClTphA8XcoAOWO2wSnLMgJlBMoIzOMR+MMf/rDDDjs89dRT48aNm/VQSJQfe+wxSechhxwiIZYNX3nllaeccsp666230UYbyV8l0FdccYWmZCx6B8wSWZl0onR43KlTp7vvvvv2229feeWVlQ6njz32WFn4YYcdhrbCCivo6Lt8vdPlBx54QEp97rnnSnzxQX48YMAAo99111277bYbjYNn59ZSbZk040pK9iXihNmMuXW42IilxTHBqEbWYuOGyV/9INi4lTgVWTJliTICTSQCzThd9uoJXkPjSWsiAS3dKCMgAhb9iy++OM63VEuUEWiCEXjnnXekoT/+8Y/32msvWeknn3wyo07KROPvu5CbEtJ/F5smGa28mU0JrsSXhpyGVhx66N+/PyOJJqHRn3zyyYw7D+7Tp8+RRx6pSYlJAL1wWAC0nXbaSUmpSXYOBFVnyaeddlr0SrpHFyUL7PMTuUSRCMiDJ331Q053kRPLhuW+oYzWpEpp445dG5M+qWoqUUagyUagGafLHjOPnLLxg1uOUEZgxiLgtlx44YWdgc1Yt5JdRmBORODll1/+9a9/vfnmm0sub7nlllGjRs0JL8oxm00EnAtLiLlroVOSIydWSqG1EqTC8mCtZKWqMvgETc4UoDzwEo0SzSICzThdbhbxLZ0sI1BGoIxAg0fgj1/9XHfddYMGDfqqlvX/G264wVHudMa04oUXXqj26qWXXjr//PO33377nXfe+bLLLqsmzOOaoUPu2GGHHXbbbbddd911l6//OKFPY++99z7ooIMOPvjgn6d+Dqz6OX76j7PtU045Zbp4/AVVP9Ou1vT/7rvvvjkSf5kuJENLf1WdVUWyK/HVJGNWJtAqM44SWQ4dBJqEUwplBJpXBMp0uXldr9Lbph6BgQMHrl3rh76pu17613wiIKkNXHTRRb/73e9Czi4vueQSmVjCefzxxyumK60JjXyoa9euP/3pT6NalkkEllnm2926dROcFat+5I4VeH/6z79TP49V/dw5/WfIkCF33XXXdPHOa6p+kkv2m9/8JvFk9gjuBJmu02IgxKCUBNmwEpIMmJ5S9iwOSrLWODwmo5EJlCXKCDRoBGaTsTJdnk2BLoeZdyLgSOmZr/+cd9558870y5nOngjELSbrffTRR0POLh966KGnnnoq4ey///5pP2UzSyyxxK9+9auRI0eOGDGiT58+HTp0SBOKyK+++mrfvn3Hjh1bj+yl0RlqvVb6jz/++IADDlCS02D5rLPOUib2jUKmSWg0+oZ9evxoSgYVgYo3Wfxhw4bpoq+yetywkJSrr/EDIfrFL35x8sknOw9O44qv/zibv+mmm2688UapcIIk+BXCk08++fDDD1coq6vJ+0zizywKElxJsLKmHfo4Ek5yXxrM6pQ30RDcSDhp6C5RVmpN60u5jEDzikCZLjev61V62wwikP6HxGJ7Pmz6H+pvBq43noul5SYZARnMKqus4v588MEHJY4/+9nPirspuezZs2fc4fJOVafXUu0uXbpQ0shBgaAa8Gg4Qw05Srls8RGD+dFHHxnXKMaKv05O1ejy+5NPPvn555+XFgdTyf6tt96622678WSjjTa6++671113XaU32B49eiR/KBBz3oGsN515q8bcCZA0Ra7sqFgG7D7B0aoMOVpVIbqEXrVEGYG5MgJlujxXXtZyUnMyAuXp8pyMfjl2sQgsueSSJ5xwwn333XfttddKOuWaxfr9j7XYYovdPv0f23PDyzuvuuqqQw45xJmo8+muXbuSw+b8889vCPpqyFn/Z+4rKf7e5UimlZEKf9X43/+vueaaRjEuyH2XWmqpaAiXpMVRVfbu3ZuTXgnCGZp5HNJciMRXHiwakl2YPHnaX8yqafLkydHqSBiiKTRk0Csy4ziZVjKSKMnzBMpJznsRKNPlee+alzNu5Ag4QrPNp+H0rpHHLM2XEZixCGy33XbbbLPNQgstNGPdqtgvv/xy9+7dHeIm/3RIcu4r03Wme/bZZ8tWq/pNU8hrpbPTpNR/cl8ZcJJbS3Ylwan2aaIjZKN40GCLLbaQYf/tb3+ToycPnReAG264IakSTHbfffdFfuqpp5QeyTvvvJN++PDh0yzOM//JawMxYzJBiqxs2bJlVCM5lhNLjqNJ3hxNNMHUSpBeK1tO/yGUKCMwF0egheUsA+PGjZswYUIGIZrQJk6c6BmLam5ZxCYjaOPHjydkw+iY2RytaN6DCzpp3CI2mcVkmZANNAbHjBmTTWPK8gTZtGhFZjbkjDJoygxONOFwUhnVeqVBeSiY9QhpPTKbaU09GRPqtSZ61tCKOGkpd1smHTOEsJlBiCaD1hvaQLFM2P6TnT4t0AeBkbCmZG2GnEz31b0mcEynZlOF0ujIFcrqKmueGuTqpmoNchGbrEERpsBWj1KtMW6DO8k9TlaPVa0xerWyWoPGyWp9TU32xN1L0YvNgk5mGwxrSjQpEQGMko1XX331xhtvlH0+9thjnTt37tGjh3t+t912c5ws5ZX4VmSx0tMKHHDAAUUG4sbQoUMlwSNGjDjttNOS02Xn0zHQiiuuqMnozpuXXnpp+gWm//CEEu64444rrrhCVVbtZBohvO3WrRvjBSE47gox53M20KyQBS+3K1jEJicxWc4eWisagzW3G921erfRSrb+gC749EqyJiB88cUXypg1stbQkClNMEod0QKaVJVRzShxGFRmcDSxVm434pABIYIMQjThuNYuWVSzyyKXhgWXD5OQC6Mj59JY89Qg5zIRkIvYZA2KMLOD08KNmA3vjdmEaPXq6WtXyNmlC1bQplXbApFtTSuD3nQJ2UAzbrt27bJp0YpsRiFnlGg8hAxONGEWcdKNwsm2bdtGr+xSfAo6iQnZ1rTimItFkJwBTrZp06Z169YZnKQpbCbVegKbhhaleoREX9wgJx2KJB0zBENDBiGauIfG1aimS8qPP/7YcVpFNpCu2qelF+le5uJaF7mIerl/8AnZ4Ek9Jys6Moice7kNyknkiu41q+bCZs2mtBKHQfFMK2vKaByo2ZRWmnL79u2LMPXyiBUZmjVmizDNugjNXCyS5s6HXGQ7ybGwwBqzIWeX2QaTvqx17NgxqkbJgO3qggsuWGmllQYMGDD//PNjxnmtY115rRzaoW+SxUpYQZ4qSZXgkgOXXnrpGWeckTwmesXpb6IhHH/88YxvvfXW0SV+QTlOlx0S62Kgxx9/HBMwHUivuuqqjq5vuukmHlJCPH18W3311V0FtABa//79Q84tXWUQoohPRokm4A273STuZYwbTUavdlIqAAhKT73SzWMZt07i0wcoVRFUCYAJ9O5zymgigFZlGjQeHEgra8o4ZpS2VpNmXB7ys2ZrhTJsViirq2wamqvVTRWa4gY5Odu2mwonzcWMKpTVVXOxksdFrG6t0Lh/8CuU1VXjFhydQeTcy21QTiJXj1WtMRc2q/UVGhwGi1xuNA5UdE+qLaa/gdctOnXq5A6o2/xVQ9Dk718psv4f5CzGV23WGviqVvf/Vmp3at3mrxrQBNdj/5Ui6/82DM9nFmN6m7nw0D49vZZVMMjJBRdcMIu0wAJoLpjrmk2LVos+myFnlCbOQ+QMTjThuFNDzijR3H8ekgxO0mToIjY5KZKmn3SsJ6CByNcjhJ6TwuiKRzW75CGb2RytGU7q7pOxfTp2dKXMwA7tNIsccPrlq3Tac8HxKBZ5xIzuWpsUIRtiaDpczaZpRUNecMGce9LUrHHIuuTCU8NmLs1EGCziZEGDrDlpEM/coREEvMjQnDT39PXStyY4WYTmClokiwxtFMlWhs3k6TNlc8fPRbbBpLu5yIOjapQMPP300+YCCUcq7FZPny5Hk7fE5O+pCE26lK3qFZBJxx/Fi2qUCPhOl2W9TqNdFw+aU+QYDkc1keMzzkcffcQxj6R0HAE8fZTsBIEQiLdcyfcHH3zAcijrlaLNrOsY8cko0Sw+Dbvd8MoNyYeMcaPJM8jJBRf836PtXqLkFcJCCy2kSqax3cgPoqoJFlxwwaQaMhrgi8+iiy5KiVYPaDzErEdI9DhFbl20crtJglZTcFeIUs2mtNJ1KbebdECqZaufW71aH5ryd5ctQQ2I0tS8HgGZQd++//27tHzxdMxmjw+k/8D+vB6mcv7NPwLOZffdd9/0PKpPl6P1ySefXGKJJUKWlToPjifC+6TnJfRJ6ag4CBXPi9NlyfSSSy4pm5c0v/nmm/369fOshQXksBml585BcshR+vLjyDkyb2Nxfvnll9dLSi3blk9LrOUcmuYOSIKdF0BMR1ocgjKRIw2NashaZflK3cErlndLkEaEXlOJMgLzZgTKdHnevO7lrBslAk6qjjrqKOdYDt4M4KAlfbpsh6YsUUag+URgBjy97777zjvvPHlnxemyh+LWW2+V3YYt+a6sFw08Kb63hD4pl1pqqSAMHz5cpiszlh87GPbyiTNmzJhDDz30qaeekpo7EmZBZoyGzGDAhx1H1Cuv6haeuwAAEABJREFUvLIT6NAo5cQy4+OPPx45cOGFFx522GEhK2MgQ8w1kAEHqmcUua+EWFPIhKgSaIAAkmkglCgjMI9HoEyX5/EboJx+g0XAKdfOO+98xBFH2K0HDRqU3sttxlDzLK3Bhi8NlRGYExGQie6///6vv/76+++/7/i22oWLLrpohx12oJ/RfNRJMONx6PvWW2/Fn8nzqXTAgAH04EHzTMUbKbIhJNZG8ej16tXruuuuo/HcDRw4kBBA0zEgmY78PqoxUNDmglKO62zYRBwwJ3mwaiCyYcl0zaqOwEK0lmUZgbklArM0jzJdnqXwlZ3LCCQRcE7mrMsRsk+6tt7Yg9OlVpyEXwplBOaCCMhHpa19+/bdbLPNHN/GjNzqW2yxBfm5555T9u7dW54qhaV0KqzUK9CzZ0/HzzgZkAQ7nK6Ziye9HnroIQYjUfbQeQw1GZdM0ASOvZUJLvz66TK9VNtYSRKpY7OGnFjWawqTJ09WppGkwjHZYAY5TSvlMgJlBJIIlOlyEopSKCNQRqAJRKB0oflEwOvf2Wef7f1Qeio3DcePPPLIPn36yFO9NMqhJcqhx6GsQPyORBCUEm69lOQE7DNCCQTVaCIYnQ+qiXGCahoci0FvuOGGEOqVhmZT7pju3qxlcwFTqM6YIzmOg2fZc9AwS5QRKCNQMwJlulwzLKWyjMAsRcDmZCO/5ZZbZslK2bmMQBmBMgKzFgFpsWw40uK0JUrVOF0mlGisCJR255YIlOny3HIly3k0pQjYhJ599tm///3vTcmp0pcyAmUE5sUItGrVqnra1Ql0NafUlBEoI5BEoEyXk1CUwrwbgXLmZQTKCJQRmIsj4Iy5YnZTpkyhKX8HQxBKlBEoEoEyXS4SpZJTRqCMQBmBMgJlBJpHBKq9jLPk+AWMaJVAO3VWRrUsywiUEciOQJkuZ8enbC0jUEagjEAZgTICzTgCkydPnjp1qgmkz5LJ6exZa4kyAmUEMiJQpssZwWnUptJ4GYEyAmUEygiUEWj0CEiLJcfOkgmNPlg5QBmBuTQChdLl+I6TEYFcQrovciCtrJZxqpVNU1PQVTRo8CkUsYkDRYYuSCtiqtlxcueeS5jRKTMIxXsVIePM0KaIn+1AEKLMZkYrJoQ866W5sAazbmpGLRg0kNuxIC3sIIdQpJwhcq7BCGYubaYIZafZFIGCtwQahE8tp/+4+lGdlTKxmWEEBzIISVNBWsKfm4TcuecSZjQaDELxXkXIODN0X+FnOxCEKLOZ0YoJIc96aS6sQU1TLUZn/owZM8ZHnLFjx2ayRiNMmDDBGNm0aEVmk+Wo1isRJk6cyGw9QqJncMqUKfiJpqaAwGBBJ8eNG+cDVk07aWXYLOIkgwWdnDRpUpGhuTF+/HhkPpAzID4mXtBJQ+NnWNOEgGZoci6Ma/QiTmKaUa5B1qCIQU5i5hpEQAPzImeAe5x0KTM40cSaOy03REy5K5CjV3ZpOkbP5mjlJIO5c8HkHnJuJHE4WWRoNjmJX8TmDDmZOx2DCrh48iEXppNrkBFT5mQRmwwWoYWTRYY2uukII5CB/TTWXnvtqAp4jB5VZdJFrzQqDKab0jInbRWhIZRIR0BwXD4BrxfkiJsSwc0j5uRcuGquYy6NJ2y6LXOZDBZ00iJQZGgjmjuyeZEzID7FnTQ0foY1TQhohibnQnCMXsRJTDPKNcgaFDHIScxcgwhoYF7kDHCPky5lBieaWMMMOaNkyl2BnMFJmkyniE1OMpg7F2ZdQeTcSOJwssjQbHISv4jNGXJy+nSYr0SL+TN/OnbsKN1WZrLmR2jbti1mNi1a4++BDzmjDJvMZnCiiUEvz/hRrVcisOabVD1CWt++fXufrtKamrKh27Rpw2zN1rQyDPIhrayWEYwL1U3Vmnbt2rVu3bpaX6HhJA+hQl9d5SSDfKhuSmsY5CFmWllPNm6bNm2K2MQ0o3p2Ej1rUMQgJzGTjhkCGuTa5B4nRSnDVDSx5nHIDZFIunXZjF7ZJWtFmNwzOsvZ1rQyaEaEbDDIySJMdsQcn5ANnIJOhsHc6XBPwJnNHjdaTSfXIKZoQxFmQYOclPHk3maGhgqmqaUxYMCApMrDRCbUs2/pq9dkuAThZFT58Mxzz992x9ASIiAagiPaLnduJBHcPGIekcwuXTX3eTZHKwc8NcySsxEG+ZBNQzAuZNOi1dytGCFnlOLDQ8jgRBMnGeRDVOuVDPIQsx4hrTeuEBWxiWlG6b41ZdagiEFOYtY0UqFEg1yb3OOkKFV0r66yBtX6Co1IunXZrNDXrAp4ESb3DM1yTSNpJYNmlNbUlBnkZBGm7mKOT8gGTkEnw2C96eT/MoZNyFPagGAQcg3ieDXPpc0QgUGYoS7ZZE4iREnIRRFmEU7uQNWE4mYbNkTVnjRfTfEYFp8jmwUDjoZcxDJmEdoc5Myoh7Un3sgTKD7onGUWDIOYQ0FyQrvuhpsO73dMCREQkxW/u7yyIEQbCpKL0xr2ZiturbiHmMXNNkaIODAXoHgMTbYgGa1gwNGQWc4FZi5nzhJm1MN6E89Pl+fsPMvRywiUESgjUEagIgIDBw586KGHKpQNXn3zleey8cKTI7MJ0fraX5589bnHQ84o33j52ZeefkSZwdGEgPaXJx4i5yLIuTSEvz7/BBAy8P1VVm7wIJcGywj8NwLl/5p2BMp0uWlfn9K7MgJlBMoIfD0CY8eOffHFFxdffPGvq8taGYEyAmUEygg0VgTKdLmxIlvanSsjUE6qjMCcisDxxx+/9vSfLl26jBgxYo899phe+1/hyHlO+VaOW0agjEAZgbk7AmW6PHdf33J2ZQTKCMwlEejfv/8zzzwzcuTIrl27XnvtteQK9O7dey6ZajmN2RWBcpwyAmUECkagTJcLBqqklREoI1BGYM5H4Kabbqo+WpZAv/rqq3PeudKDMgJlBMoIzKURKNPlpn9hSw/LCJQRmNUIzOgfjp7V8Rqn/0MPPXThhReed9556XNl581rr7124wxYWi0jUEagjEAZgWkRKNPlaVEo/ysjUEZgbo3AlClTJk2a9k//KKdOndp8p+n8ePDgwQ6SDzvsMPlxgi5dusiem8+8Sk/LCJQRKCPQ/CJQpsvN75qVHjeLCCzz7W/X++sbm4X/zdrJZ59/4ZNPPjWFSJFbTP9Rbb5nzGPHjr3hhhuOOuqojh07lqfLLmWJMgJlBMoIzM4I1EmXZ6cL5VhlBOa6CFx21TW33HnvZdf86f33P5jrJtekJyQhPvaEU3bZY+8NN9nyo48+5qtUueX0n1atWvk/TXNEhw4d+vfvv9hii3G+PF0WhBJlBMoIlBGYnRHIT5dtPwUdKniWxiDk2sQpaDBM4YdQrwxCcZv4UM9a6HMJQUvKGeUnHesJBQ2iQT0jaX1BmjAWZIbxXHIuIewoDa1sWBS0WcTJyZMnb9lz5/N/d+mvDzt4y803lbRdfOnlU6ZMqedwEZtJX2RIqvWEgtPRvYg1NGgMJrMFkTv61KlTHSSPGvVF1y23/fPgOy8698w111htg403v/HmP0/rO32YdFgoYbo6qyjCif6YEHJ2WZCWYWSmT5fTEciwX7yJwVmfTnq44tYMne5YT2YQ6rUmepyCBqMLfgj1yiAUt4kP9azNnH5OGTQuFPG5IE0YCzJj0FxyLiHsKA2tbFgUtFncyWBGme1qEU5iARmSaj2h4HR0L2INDRqDyWxB1Bu9hT0mG3pmE6JVllCcyenolVEyKMmADE7SZLPET6o1BQS04k5i6lLTVKJEYFOZaOoJOJj1WhN90AydaDIEwSnCZBMTMkxFEyYnlVHNKNEgg5A0GRcz1yYa5NKYxSnCRDMupi65QIOJEydmM9lEU9aj/f3Nt76/9obv/vvfV/z+wv337X3RuWecfPwxF//h8l333Ncxc3UvplxBNqubqjXB1KW6Ka1BYFCZVtaU0aBmU1rJVAydVtaTCzKNCyzXs5PoXUQ0SDTVwoTpP39/4611frzJlMmTb7z2yk27/uSGa6446Jf7n3rWeQcd3u/TT/8TvcaPHz927Fg2i4yOgxkds0s0HkI2jUHxyaWFkYpFUkeaCjz00ENrr712ly5dRo8eveyyy2oNT8JCRclChaZmlXvs1GyqVrKJX62v0Jg4VChrVhmsqa9QGrQ4s8h0GOQhVAxUs5oR5ITPIFpxJzF1SbrXFEyEzVyavjiYhGwEzdDZtGgVnCJMNjEhemWUmJxUZnCiCQ1Czi6Ni5lrEw1yacbCKcJEMy6mLrlAg4kTZ2G7+foYMTQfvq6urCG4goaubKhVD6YutRr/p0NgUPk/VR0JDeo0/k/NVAz9P1V9qSDTuMByfUv/bRFJNPhv/ev/a6E5A7zx6qDM4GhC8CQDORfIOFESMoADGYRowjG0Mqr1SgTArEdI6zEhrakp4wRqtqaVQVOmlfXkgjTdCzLRAD8bggPZHK1MQRFmQsYnZwMHsjlacYCQCx5CLg2BQUwlOQPZnDuG3t1jh92+9c2lHrz7zo1+vCEy9Np1p5uvH/jW2+9svf2u73/wYYVxI+IoK/T1qkWYOFDPQlpfcGjWMCHdt56MHKhHCH1wlFHNKKvXn1j4rGhJL2vajbfc1muf/df54ZpDb7tppe+tyFvGDz3wgD/87rxHH39yq+12+eyzz/GjF5vkgmAnl4kDuTSEcIyQCwYhoekY6N+//0YbbRQy4ZnpP5deemmHDh0o012SviFktwZHyQImoQiQC9KK2GTNpVFm20RgDbJp0YpMiJKQARzIIEQTjqGVUa1XIgBmPUJajwlpTU2ZNTSo2ZpW4gTSynoyZr2mCn1BJhpU9K2umg5U6ys0TEERpo6YAXI2GpZmLB4CIReGxlRmM4twwkKuqYRW3KYuRcziAHIuCg7NGibkGkRADpAzEBxlBieastefFm0zf9q0aaO/MpPVFqFVq1ZmmE2LVuSWLVsqo5pRojGbQYgmplq0aKGMar0SgcGCTrZu3Rq5nqlEHzaRE009AaegQVM2nXp20vriNjEh3bembGhOmlTN1kSJwEPMRJMhFLeJWdBJTD5kDKoJobiT5gJ6ZYN79YY+6Ih+fX/z271+utvwobctssjC3/jGN9xpgVVXXmnk8KErfe+7P9m8x11335cegkFOsplW1pN5iF+vNdHjYJp+oqknoCHXa030OBaBgk6aDn7u6KwBZjJKPcHQCY1ZMrf1BUL0OuCgw8+54OITjj3qT3+8slOn+fkg8pY/5YYbrPfA3YPn79jhx5tuPfKRx/Dbt2/PJlPkbBgLijB5UoTGWsGhOVbBVDWdXGR4wgIHWM4GjlGyOUkrm4mcIaQvVgZNDBlUZnA0ITBY0EnkjJiwlgCN2aRaT2DQDaasRwg9AoMFnRRz5OiYUbKGhpzBiSYczJAzSk6asulkcJKm4jYxIelYTzA0J/lQjxB6BB5iRjW7LG4Ts6CTmHzIHhehuJPmAtkGtdyUPeAAABAASURBVHKvyNCYaMiEbOBwEjmbFq08xA85o8TBNP0MTjShIYecUeJYBAo6aTr4uaOzBpgZ40aToTNo+b+77BEtUUagjEC9CDjaXH7VtUY8MPL8s049+sjDPG/VzA7t218/8PKf7fXTI37z271//qvJ9X+VubpvqREBBwPi7FwZLLsQytFjxgj+s8/95abrru61y46UEJdAF7CeLrjggsMG37z15t36HNr31DPPjVa0Zo2HHnoo/PdWACGXZRmBxotAabmMwDwegTJdnsdvgHL6sxSB117/2xrrdVl00UXuHzZ42+5bZds69qi+11z++6eefW6jzbrHX3OWzZ+XW6WAASmvOESOSybIgAMvvvzKD9brsvxy33ngnjtXXWUlmTQm6KgEfCWyA4Pzzjrt9JOOv/6mWzffZscJEybSN2scdthh4b9Ze5EIuSzLCJQRKCNQRqCRIlCmy40U2Dlithx0tkbg0suu2mq7XTb68YZPjRy+zNLfKjL2jzqvP2LY4IUWXHDdLt2eeubZIl3mQc7kyc7f5YHTMHny5CTrTYfinAsv3m3PfXfdcfv7hvx5iSUWjyaJI0iX4/iZEPood+i5zdA/3zhu3Pj1Ntr0pVdeDWVZlhEoI1BGoIxAGYHcCMxAuvz+Bx8+/Ojjt90xtCbuvOueIcPurdlUrUSuVlZrBg8ZBtX6Cs3td951x9C7K5QVVZ6/1zT+Btzx4ydU+JaumovgQFpZT0bOnbi+aMKoJGcDBzOboxWNh0WGRmYQCPXgvsq9TZsgYYfd9jrzvAuP6XfEpReeM0PuLbH4YrffeN223bfcba/9TjjljBnqOy+Q5bjy4zgSjqxXxmziNEpNEydO3Gq7nb2rXHjO6f1/exQ+fatWrYLg+DmRkTWlsfxyy94/7Pb11vnhTr32vvTyq9JNpdz0IlB61LQiUGTNtztY8JX1FvxEj4OZVOsJaA243cQobBpaGdWMEg1qEp59/oXZc3nuvCsnveEh1HQyrcQRSWVaWU92rYvEB4dBZT07ib44TSaZYXDkI4/NnrBXj5KfLj/48KO+Ha+4+jobdt1ir/1+eXi/Y6pxxFHHHvXb/kcff1J1U7UmyNX6as2vjzkeqvUVmjCorNCnqzzvsunWa27wk/U32uzyq/9YHYjZpjm471Fpxyrkvr/57W+OO1EwK/Q1q0cefVy/Y0+o2ZRWHnHUsZiQVtaUcRjEr9maKNFca8xEkyEgZzOPP/n02Rb8hhpotbU3dDw55NY/7dt7D/nZjJpt3brV+WeddvH5Z91w063b7brHhAkTZtTCXMOX0TpDdiSsjElF+iv31RQaJWUS5x+s1+Wf/3r3oXuHbNatq6agaZVbS5SVZHxNBGUF2rZpc91VA4487KAzz73QO08wKzhltYxAGYGKCFx21TXZK3nsArYPaz5ENaPEYRA/g6MJrQG3GwbBoFILlsnZQAP8atovDvzvL0RVBKphq7LMg4/Iyhk4xsOCcxFJZF1y4dIUsSljwawZn4oh0IoYRONkBrP3z/s0bISLW8tKl99+5x8rfP+HBx3ezyZ09JGHv/nKczXQfJQvP/PY9QMv/+4Ky9smV15zfa8vsdEWD1bDML/8ctOuP2nWkWxA54Xiy6lTGyaws8XKk08/69VxoYUWfP2Fp1ZZ+XuzMuaWm3V7ePhdn3762Q/W3+iDDz+aFVPNrq8kFbjt5DgEJdAE6EEOLW+2/ijpHxz56Pd/2Pl7K373pacfXfpb3wxlkhPjB5LkW+qsV038fJ+9bvvTtX97443vrrb2Z59/XpNTKssIlBFIIjB16peLLrJwAy7+zdrUkYcdnESmUYXIUpp1rBrQ+XPPOKVRo51tvG66/Icrrt5kq54/6rz+PXfcMmLY4H326pVtqOm3tm/fbp0frnn7Tdc9OuLurTbvdtivj/YmMGVKc8rVmn6Q52IPLVsnnnqmzxR79tp15H1DG2Sm31zq/x4ZMcxt2Xnjza+/8ZYGsdmUjYghRDorFSZIeVtP/0sbuU2jTNJfWbImBPqxY8ce0veo/Q889KA++9886Go0wAwCGSTHNAQlWRNBtR7WWP37j424e8UVlt/gJ5vffe/w/9LK/5URKCNQRqAZRuD4449P/sKcjz/+WNWyWXMemhJmQnj11Ve33XZbZaJh5IADDlAmmkQ466yzEubAgQMTa5Rdu3ZdO/VjrKRXcxdqp8unnnnuGedc4GPxH6+4dPnlvtPcJ1nh/2KLLnLemaf6IHvv/SO23Wn3itayWkagZgR67LDb9Tfd8vsLzul/7FHZeVjN7vWU7du1u/Haq4445MBjTjj5gIMOnzix2f+lDfVmKut1+qsUPels0MgEObESJNNpmWbq1KkTJkzosePu993/4M2DBv7qF/tJo+mrwZQmWbIyMVJNS2vmn3/+u++4pdeuO/3ykL5HHn18+fKcDk4plxEoI9DsI1B4AqusssqVV155yimnPPPMM3Lc6ixZ8i17jkz4hhtu2GOPPUK+8MILDzvssJCffPLJ/v379+jRg5G7776bsOSSS0ZTlCwX9qjJEWuky5deftXlV//xT3+8YqvNN21y/jacQ53XX/eOm69//e9/3+cXBzac1dLSXBiBf/7r3e//sPPf33zrkfuHbbHZJo0xw1/9Yt/bbrzunuEjNtqs+5gxYxpjiDliU/orRZbyJqPTRDobGa1qNEUVU9YbybTE2vHz3954c90um3qLeOyBe3645hpoCNGlocrfHtX3sovPv+W2wV233KahbJZ2ygiUESgjMDsj4OV/8cX/+3cE5Y6bJLiRxcbx8GKLLXbttdfKm9Pdr7rqKpyePXtKly+99FJ5MOy2226YBDj44IPPO+88AvTu3Tvdl9y9e3dJ88iRI7Wi0TRfVKbL7/zjn2eee2Gf/fddd+0fNt9ZFfT8eyt+96F7hz448pFLBlxRsEtJm9ciMOjGm3+yeQ8f7l/7y5OLLbpoY0w/bK6x2qovPf2I5HL1dX8sRwxlMy1lvTJdkPJKiFVNRKarTBDVaKJMV8mRUp//u0t33L13t64bPTz8rgUW6ITWGJB/d+v6k2cffeDT//xnxdXW9nbUGKOUNssIlBEoIzB7IvDRRx+98cYbEtx6w8lc5a8JNtpoI+e+AwcODP4HH3ywxfSfp556aokllpDsrrnmmppk1WgESgfJBJAiS9MdNicH0nfeeacMmwF2OnbsiBOevPXWW926dVNtpmhhM0uj65bb/qjzBn0PnVcOXJf6vyUPP/hXv7v0snf//V46Di5nupohF2cykiQHepVIIiAyoKrMheQGJ5eMEEDORT3mz/scevxJp/c/9qjrB14enEYtO3To8PQjI3r22GqLbXY8/ezzJ03/K4cT52PiSTVD4GRG60w0FTeIKUWW9BtF1qtKcNsDGVQRCKajjKoyZIJW5fjxE3bZ82eXX33NVX/43SXnn621sbHQQgu+9PSjP/5RZ29Hv7/synCDJw0LsyhoEDNQk68p9AQIObtECxShZXOSVgYTOVsowizCSUaZIXLSK0NgEDII0RScKENTr8SBeq1pfXFaQWYY99CFkFEyCBmEpAmtIOYdWnVwEk2GEPHJICRNmGRlEYwePVqWnDBHjRqVrib6ekL//v019e3b9/DDD3/vvffunv6z7rrrOh6mD8iql19+eamwqixZKQ/WhXDMMcecfvrpqmTHyRJxBpZcckmbmmPv8OTDDz+UWCPMIsQkwE4I2SVaIJumFS0pCRVoMS7187vfX9a2bZsLzz5Nn3kHffb/2SILL3zciaeOS/1MmDDBWpNS1BbHjx/vMzHUbk5pGbQB4yvnndgWmamAiJP4CCOQs4Hp2NJjmU2LUGNm06IVrWLof7377to/6vrYE0/ecM0Ve/batchEGopz3pmnntr/twOuHLjHPvt/8skn4aGy2knKakR8lNVNFRpJrVnnRhLHqqGs6F6zymYY5C0f9HIhMENJEzIBU2tUlaAKmt586+11u2zy7rv/vnvwLT/p8qOGCmwRO1deepHDgrPOu+jAw37NZ7PgWC7cwzHNbKbZiWQRJjux/owZM4ZcDXMJJZsiydWoZpQMGjqXKf6J8Qxr0YSZaxAhnIwuGSVmOJnB0WQWDIokORfImCxnMxFca8imaWWQk/jkDKAVd1LM2cywFk2izSZENaNksOA9acqYGaaSJrcZB0okEXBfJcFxuYVRMBNNhoBW5CKyiVkw7G5Ia8XZZ5/tAJiH0tN3331XSQZKOW4Cp78Vv4zRs2dPZ8MyYBbOPffcOEvWMcC4c2Iy4bHHHltggQXWW2891TRWWWUVfSXHlOwbK06XVddff31H0exL6Jdddlln2Foz0LVr11dfzfpnpJLYCo5bPanWE3Aw67Wm9S4ismmmlYncon3q53d/uLxnj60XXnghM5x34AzM8eGIhx7+fNQXSTDatGnTsmXLpFpPaNeuHSbUIyR6TN+XVZltArFtQi4IiLC0bdu2devWRSIZTI+lXhlAc2Uj5hm0aKoY+qFHHuu29fZLLL74Yw/cs/ZaP5j9wdpt5x3uv+v2l1/96zY79frs88/DSXMpHh/Tj14ZJYNouZE0qAgoM0wlTWFTNTHrY5yqgZShJLMW150yASbcevudm2+z4xqrff/+YYO/s+y3DT074cy7z/773n7jdSMeHLnNTj8dPWZs+Jw4WVMwFw94zaa00qzNpQhTL3cvZr3R2cEBNo1ej4aQAI3BpFpPYFAeUK81rWeNG7lDI7Dpxkj3rScXcdK4DBq6npG0Htk15UNaWVPmIdRsSivdvZxMa2rKxuWkoWu2Vigxi9g0ZUyo6F5dNXqRueiI5k4j5AKTAyWSCKQvrrtCGIUoN4wIFdsNTU3ERWQzGTFDkOFZPC+66KIBAwbINYcPH77vvvs+8cQT0cWpsOPeBD169Kj4ZYzbb799scUW09FRMVPRK8qrrrpK4uucWHX//fc/5JBD9t577xtuuOH444+X8nbp0mXEiBF7fPXH/uTlaOwbK06XVVddddU333zz6aefdjLtSZSUa80Ag5JvHeshCZfgiHxSrSd4ZDxf4lmPkOizDbZwyQPnXniJV5nTTjyunotzsX6TjTda9tvLHNJ32t94ENFQmq8yF8VpwVTOENy77uBX679suUEPOOAAtAyzXuxwlBkcTUx5BpTxrkmThpdCSGtCjr9TJjqGhgXVkIuUuUFOE+zlqswqGwonnXRS586d1/nq55ijft2p9dSP/vXmxhv/RNyqY1tkgnq5cBYFFqrjJj5gFgGXRswx9QqNTPGis07p2LbVj7ttPehPt5gpvbIIGoNZZFycZOi4TDR2ESU9kEE1WskWMisUTeBnBxx03EmnXXjO6YOuvqxD+/a6zBGsvtqqLzz1cMuWLX60yZZDh90bvs3m0sQzRkxaEyGDHE1iXpwcXbJLl6+4wYLMgrQqx2ZVYS7FTRR0Eg0Kmi3CxIEiBtGgCLMEX0hrAAAQAElEQVQ4h8EZgjXNEpcsaOm+lNY6rRZGZdJEtrQmVYIqDiEbaNZPI1bQwiALErsK6BJuVOiTKg8RKgxWVItHL80MI2lNthz87PKVV15BcHYro5W8Pv/88927d3ckXC9ziNNl8dErgTPg1VdfXUabaAj77LOPXWy33XY7/fTT5eI4Dpjp+/XrRy8nXnrppZPkW16uCcRcku2YmRsOuSXKv//978maZh1JuJhK5AYRLJIZdv73R/3+dPOf996zFyoP5jWY9a8PP/jpZ59vChN3B8cTG58kbrrpJi9bHgDK0HAy4VC675966ikveeSAVhywfHjmleQiWHzxxeeff353vAfDO2WRLhUcDwkfuOQ5IQBNBacJVn/7299aAh555NHW8y8yenLL0886x0IA1157rYAkDlthk9gmynqCRccbufLSSy/98MMPY9kSDTEBy0f//v2TqpOAK664AhM/MfjAAw8cd8xRu++y429PPOWQI38zadKkpKkpCy1btuSer1pK8JVZCVYipbwEQUlO44svRq+94cZPPv3sXbfd1H3LzdNNc0SWx48YNnjLzTY56Ih+jhKS6cwRZ8pBywjMHRGwDNrF7Fa9evWyADpoNC+am2++WdmtWze7D00Cp6TLLbdcUk0EiaytzUIasOP861//kp9FVWlpTchGke1ZzC3pgYMPnvaPjFhsLbmhUcr56AkBTQiJkaYsiMbgwYPNkZPOfNZdd90jjjhC6rzttttecMEFWukrYLKmKeBiJfKuC4Iz4JrR1gSLLrro4YcfTjj33HOVYXbIkCF77rmnyxRVW6RrYfdHkEk7Zkbgie11Rn+XmoWmhv+my08/+9zHn3zS7/BDGtG/pm16q8037dRp/j8O+tMcd9MiktxnXsv447YGT7KPIMlHirjd6StgUUgyPHeqjM1HFkZqwpqydupHUu4jC0UI1anhhRdeqDWB7tVmOcZ/T6ySz9WEJqh5+OGHjzii75obbCSTe+DuOzbbZONqJy0HgwYNsr5UN4XGa4kTjiQ4BMEUyRD69OkTS5L4uGRW8OglRKrxLYxGSPEDFh1Lz7A7/rxw+xYP33/PxhtvvP7661dfFL2aFJJUWH4P0mVR5SFBqRUIaTzx1DM/WL+L5fjh+4au9L3vppvmrHzx+Wf//oJzLr38qr326zNm7Ng560w5ehmBJh4B2VKsXUrJqxVMZkwOaLV/Of2R2DmaibmQCaeddtqoUaMIUL0GRvekjDXQNmezGzlypJzMXmMVBdYoCezgc8ASKrHu2LFjbKb0VvIXX3yRA+zgJMCs2OB0RNalicOZmgmKLW9ltDb9eOtQks8444x6/iOIlSuir+3pjTfeWHXVVROyzME7g5LGofI3v/lNVTuXUZxbU7qgMuyddtpJ2I877jj6MMgmGgII++677+7tiJOnnHKKUSibKf6bLt/858Em0KZNa+U8i7XXWvOi31/WFKbvw4q07J133vHKeOutt8bz7EkGsntUSu2+rOmq+/7II4/UJHvT13qhi5XLCbSSHLAk4UBkb+5vsNC47wkBoyCkEbldtCqTRyLNsegYKIbjcLqpycr3DB8x4qGHt+2+1SP3D1vq/5as6efTTz9tUmYngMoILBmSt/M111zT8i0yAcEU0pBjSWJZX10guQSUCYQ0+PaA9KUZdvfdi37zO/8ZN3Xjbpsl5CYrtGrVKnJi320SOU6Xq30+9cxzd++93wH77XPPHbc0wT84scVmm9w9+Oa3//GPNdff6Klnnvuf/6VURqCMQFUEkj1CCmsRS9ZDMq7Ny9IX5wh9+/aVjzr+dKwTi55DSilsvTUwOMpkY+rXr5903FJsx2EWwjLBKamhndpYRSV5q6222ltvvcUBkNVJLh15sqM1cbha1rHpHzCbjpz1oIMOMjUpqfzYvMgBIZLa1txrgpCUEuIVVlhBcmzKPn4mIRVMkEt0795dsmuz0+RdZeedd3a9YixZhw+kCBUDPf/88874fKyWrrB8/vnnN+uM+b/p8vAHHjru6F/b25LYzYOCDfvT//xnjk/c3e8UU1LlPNLHlKWWWsq6kzzJFp0vvvii4hTT3ZyG1n/+85/HHnus7M3iAixYOJTkgCWpeqZeuEePHs0BqbaFTFnNqdbo4gzVmmWl89bOVQPx02plJarmNzXNLnv+7LY7hrZtNd/wYXekw0g2L7PjsGXC7EwtokcwwZCVSSqMmcYSSyzh3ZrGIgIE0FcXJRm8URgoYCUyEKVNRTzdA6FXbrnFFp/8++21f7Dafr88+MRTz8RpyrCSOFGWKCvJca5MqPB5/PgJ3XfY9fKr/3jdVQN+ffi0z6MVhCZSXe47yw4fctsqK32v1977XXPdDU3Eq9KNMgLNLgLSJrvD0ksvvcACC0iw5KMnn3yyA9HYa+ReEJOqXgMtg0AfBKVzU7uMpZhNiyokJxQGct702muvWUUt3Q5N5ZS2Nr2cRiklhUpIVmDMtKypWcBEBE0yylvbOpmQQKsg0ycaAo74ENLo3bs3fWjwBTON+P4pLbbZ0Z999tmEhK9XNOlIDnBJLzRNicb5UVINZTMqp6XL7/zzX5988umG61f+zSDNaBoN4up66/zQvn7LbXc0iLWZNuIF0UM+YMAASwMj7733npe55EmWRXXq1Mld6JZNkKwRodHqTXrJJZdM381M1QTLBgL58ZgxY4Ljdb9z585SPQmcpoClBEKOUqv0zoumZ8DQHozVV1+dQQ7z03s/fhhsmuWECRNWXH3t5//y4inHH2PNNYUKmJfZcd6hhWBWLzGa0vAybdYRnGRZtxM89thj3rzTzET2RmFQpQRaAC0lQmp9p6FPg4cH/fLnV192ycDrbth1z31j6U/sNDVh8lc/kyZNil/8lTqnnRw3fvxq62z4xptvPfHQfZ3XXzfd1ATldu3aDr55UP/fHt3/1DMPOuKoyVOmNEEnS5fKCMzxCFjzYwFMdoGo2hHCN1msRfVXv/qV8yBNaL7aKckQe0rGGhhGlE6Ine8QnJ4m3YcOHUoTMKK90rrqrHTIkCEGNbRl0zdbO2ZwlMlKi5mWNZUoI5COwLR0+f33P6D6zmz/O5sM2gTx6ONPzkGvpFYOaFdaaaXEh+rT5WjClFR5+KNaUUrsfJ1xzGwBAqtJ9ZKkixdua4ScLPJCCxDl008/fe+990rvpG4SOK0BSwmEHKVWHOevTmGNIkH0culFn5LB4NCw2QRx/wMPrbLWBiuvtNLrLzy1xBK1/+1QE/Ea7QVdrmwK5hjwSmAtDlnpTcOF+Oijj1ZccUWnHSYutcX3QdB7y0UXXeTdw6s2Deiri5JcDZfV18mtt9462XWQA3feeSd+lw03ePCeO9986+3V1vmRkqZpQnIcx8lKcuvWrQmJq38ePOSHnTdef921//r8k4svtmiib+JCr112vOm6q0c+8uj3Vl/n3X+/18S9Ld0rIzD7I5DsETYCy2Csh8mSyB9L4ne/+93vf//7tg9knDSTUhKcvQYyksDi7PSU/YDuFm2tEm7lWmutpbQHwfrrr+/Uw+5mmwuOJkhWWmtyWtY0L8NuLsGYlyNQPfdp6fILL75sx2pGv7jsSZCfSSyq5zOLmnXXXuvvb7w5i0Zmpbuk6sQTT/QenBipPl2OpvQXpSRhjbzKjY7DlGPmWESsR+lfxog1RYbnONnahByw9BCsGvvvv7/u5ArEahLZYdLEW8mxhY/G0DvvvPMxxxwjd2yyD5tvCCeffvZ+fQ75We89br/pOm5nQJRMxM3mDSSCqfSOYZUnBKzXQmfKHTt2JCTWxPbqq692+CEmiVJfvZQ0XleW+/qf+77qqqsOOeSQJZZYQjzR0jCiLrD0t745fOhta6/1g027b99kfzdActyqVStZcquvfo+Z5zB+/IRD+v6m37EnHHXEIdfPln8r0aANiB+uucZ9Q/683LLf7rrltnfdfV8DWi5NlRGY6yNg7zZHW8bLL7/ctWtXG4pzB6c5yvguZ7EtsgZalq2rDzzwQGx56TLOpxGSBdOIsNFGGynZTx8tUyZrrDU5verKsPGbPszUjhwRcEBmqxo4cKCNODxX1aqManXpipx11lnV+lVXXfWNN97QWt3EuCArpWEJgdC3b1/OJHyyaGcMHUw0HvI5qk25nJYuP/H0M6utukoDeimOLp6y2qaYbrvttspoEk3MgHiJrOsd1aQMO2KKjKCjV8MVVlgh8kXVBAiQVGdC6LXrzu9NP2ufib6N0eWll15ac801Pc/JkxxLgGgMGjTIekEwrtVHwooWsARQ5kJfebaUDjOd6hmCBaEWTBytCWI1kc85e3aBXBoEbgRh+PDhUu1Ro0Z5ighWQBzPlcvty3xwmkK53a57XHnNdZddcsGx/Y5oMd982S6lJ5jNdGriqx+OLsl7iK+BwiWHdns7s/fpIAIuwmIodFYlXRIceeSRbm9VG4nopSGe9IEFFujkmPOYfkeccMoZh/36GDlo6Jt4OXHixB477nbH0GE3XXfV/vvunfZWfC655BLrZnrKZBrxTDPJyPX07skg6JsGvVs6vbzEnYkMhnC3I5Bzsdiiiw6/6/Z9e+/xq8OOPP3s88tfzMiNWEkoIxAR8KA5VyYrndrYUGxtTnN69OjhHNouZi8rsgbasOQAO+20k77JSRB56aWX9iXQEurZVxoogRXAEmp70jeUnLGMYAbsWelV11pRcEEIa3OqtLk4r7H1C6BsIe2GdXLfffc9+eSTTdlyF9NUCkWalsj4WgPeYWzctvKoKrVaJAlyjyFDhtjCnIv16dOHEnwQcNLHmcTaO++8Yx9Ma5ImDrAT8Jrk03eziPy0dHnEgyNX+/7//vaQZEozJwix79eegQHT/3WZxIhYi47ov/vuu0qyO1U0MV1pj00cs8XvHtAEPEUsePthlvC3v/0trrr73s3NyM033+y2JkC3bt08KmgzjVVW+t4nn346090bqqMs1vmuCAwbNsykqs3edNNNSy65pE/8u++++0w/0t43GFEKnWAayE3vhRLczR4wK1eHDh2qR7cMWem454Gx4nTs2HHZZZdFY4Ey4LK6dmRMfEeMCHMcb7/zj++tse6rf339lece77bxtMOGcEkKa7IhV5SvvPKKKNU8a08zxUEqvNpqq7mrPf+uII2lxNdA6wj5ww8/nDRp2l+cHLHS14rjCtaz7IkQvTTEU680ZGxOOm+/c+gPO/9k3Pjx6aYmKL/0yqurrb3hJ598+tfnn1h7rTXTHoqP6Pla6irYMpNZk2kwEQTWjRqwtlphxTmqSssLWhrpACahs53YVML+1ltvje9Wd9sTAumB0vpoTZf9jjjk6gEXD7hy4JrrdUnrS7mMwLwcAc+m5xHkW7bp5CElCwu97YBQDR/iJAY+rCVN6Uc4ntnkQb7hhhuCaf2UDkoKWVZeccUVdqXEQiJ4ls855xz5tMd/0KBBqppkcpFohnF7VnrE22+f9g/doTVHIUUaVgAAEABJREFU2G7kRTyPWYi5jTim6XBda+RRgibmgqkaKZYgBK26dNwuv7Ime1EROsaZFW1XFlRBNmJcZoFlgyY3AA0kA7mUhjBcEnOW+UYZPrPW1NBiypQpX3755YILLtAgntm0jjrqqCuvvFIQzz//fLLdKCyLtViIiHC4a70RustlWlpdJ5vlOuusQ47fPRDWQHIZNMGKK6649957CzEjTAk9O0mGbVCcWYHP3KLx+eejGCEUQZo5fvx4szjttNP++c9/Ok+t7j516lT8XEgRzE5OLNliMPhucTeieErFhKtfv35Cevrpp/vQ73Z3a0bElMJy3XXXERJYuaQXykSDc9ddd7kigiaY4GzYQMb1nmNBYTDWI8oMyCYdqcbDk0HLbkoChZbI9YTgRLnLLrscfvjh8vtx48ZV8BECoXefX3/jLZts1fMHa6z2txefbte2bbRGKYVlJAlOWrCwipIyrfR24c5MayRziy66KE2sv4cccoiV5ZJLLlH26tXLkvHwww+7+j6tRKwsK2+++aZrFw5klJ4OF4vl559/vuIoWq/ll/vO0w/fv+iii3z/h52feubZmCx9CA1SsgYZpuSdxx133L/+9S+HxzWZkyZPPuOcC7bdqddGXX703OMPtmnTBi2Nd955R9VVUNZDPBRu1JpYb731RMlW7dIQPCDsCF3F90FKCTGlJnI1ePLzn//cELZVZ/8et2pOotnoxxs+dO+Qtm3brrHej72DZYQomnQMYdbLxBQBihhEg1wmDuTSENzPBZnIBZnFaQWZhv466tYYhLrNM97A2nzzzVekH2ZBWkFmWHOBQqhXshZA2HDDDX/5y1++/vrrEyZMUK2JIGeXSfbjIUpDelTd0RZmAwq9nR2fJqrp0tPqoU7WQIunVmcTobSK2gf1VZLRQCqCA7Fv2qQiCbP8WqKd7Gy88cZ77bUXZgJLhwUkqRKs6pYLRuohiVJCSDQZQpCDcMopp/D50Ucf/fzzz0NTXQY/o4ztqUuXLvaIoNm7zTcJpojhmAvIH8xdIitiYMe3wanKfaNvlEkXVctgdBcQiYF8Q+TtbkIkkoyALY8dp2zGVWUWxypKTiMZ6LnnnkNIxzwss2kUfhq3HpIQISRyrlCEnM1pMXbsOIwFOnVSzgoEVzInAxAsL3xMKa+//nqJVzL5X/3qVwJtQ3JbCy4CGsg8vBe6j8lJ7hshrn7G3FuDBw/WypR0PBJuHRsELVpM+zT/4UcfSb/s/cpcWFxkyQnNNXPgvd122zkqO+GEEzwGvv5oxcEkyNuyXRUHx/PuXfGRbKniW1N8ohJbd5vsBCH0aDSikQbNT3/607SmWsaR1uvOeMBYQGbZgqJL8rBRgioQ0uBYKJXkpIkc1hJNPUFAhAUiPoRsoMHYsWPR7AcPPvigpNlK4cG7//77P/vsM3oQcJYd6JLhyKOPP+aEk50I3nTtVdWeJFM26woIlCiZS4W+onrNNdf85je/SSzr4i5V0ggFsmvnZibTQPriqlZETxXogRE+hAW9aCqwyCILj7xvaM8eW++6577nXHDxF198IT6mnAs0URo7dlokM8ho7mplPY5WJ+Uef7M76aST3PNp5ieffLLvLw78wxVXn3XqiZdfckGF81F98sknV5/+j69ayi2aVswAmSY4UdoFoyldGtr3AVGyVXuXJrAW/BktRZtlvdwSvioQsuEF+5lHR2y4wfrb7LT71X8cNHr0mPTcK2RLCmtiXqGvWU1u3Zqt7ISeNRg7NuciIhtdmQu0xHg22bjZTibdMTPun4RGKEJjjZPuOvwi4OTYsTnxGTt2rKFZLmLQ6EVoxrVAFWHiFLHpuhR00kQwmc2FYx3rJBpvPYY+V8qbbdkSHQkcfQI0DmTDCpAsXBVMS6jWUNrLPGghKy1rWj1x5ATsQFSRPdTJGhh8z2kolQiYSjIaRF9md9ppJ2tvVHECPHnggQcs2pgZsA9WeBXdo0zfgQIuPmKYhCtDcGnw3XI44i9rOuiggzbZZBPL3S233OLcgT6AyWYMl1EmRwkO16VSkn67ofgksD7Lax3AGTTs1Dsy8Hbh6kvnTHzMmDGyNfy33npLdxoBscbSCKBvp0KnyZpMI/jJlmcU31RdC/ty4gOBZU3I4CgQwXLNIDsgw5ZwE4xiLJx6iOAoizw1aKItkoYmZ4NB5HrMFpMnT/tAvMACs5Que/lwkX784x9LfAUlgWA51FxjjTUkNN7kVBF22GEHYXJn2OSc37g8Dt7kvv8LzXTJNWDW7e7CTFdMK1xvRnTff//9mdpiiy2OPfbY9IG09xVvotOoM/fffNPS5TFjx3oSWrRoYbHzDGQAwTjzzTdfwlFNwEO3Qvfu3Z0EP/LII2GQ5YRQCiIgIKKnJAM5GzgCLvJo5IDu1vdf//rXW265pZhbHRBat27dsmXLd//9Xrfu2w+9+57BNw/6xdd/Xzb6zh3leWeecs7pJ10y4Ip9fnHg+OnnQ+KTDWE0d4HKpuG0adPG3VuPhhCwsvtwZKXedNNNvTzIm9986+0teu78l5devv+u23fcbpugVZSW5ltvvTWUse4z4quR0gJKE01JaYW1pGrtMf33Hcm2QztoQkgLUt7slTdNTssWH6tT8m0n3VQtXz3g4qP6HnrS6WcfcPDhgpARqHbt2uUGPLq7dTOYfAgawaXJYAZN2apVqyI0d0X79u3xi4CTuTSDsglFmEUMsmPKIknIhZUBmQ/ZTASRhGyaVhwGCdkwrrl4cLJp0YrMJh+iWq80NBSJZEGDaJy0ThqR5QRPP/20p3izzTZz3uwMQisgJ4RSiAgIS0BVGAUzqtmlK4gflzsd1b/+9a/OsJy17bPPPlddddV//vOfYCJnQG43evRo5wU4lkGLoR3QIml5VFoewduCPEpeftFFFwVNwia31lc1DcfS1kwfjS2bziKdFuPoGB82Q5bU6hJpntQcQlY6hNZ0xhlnyMos0YZOULGYO+/HhKS7nNBEaHKRhDfiE5FMlNUCg54voa5uqtAErZ7BFrEbzd+xI4szDVfCRfLKGKERF2mr9CWq3kIkjtVvcrq4MC4PQezkx+GAG0XcBdETS7BvhV7paDlsumBGIZ988slxIO3OcJfIpL3lYM4cWsw37Ze5r7j8sh2n/3gxlejDrrvu6rXbV3VwcLvnnnvK/sH3I/jZz372i1/8wtm5dK16XG8z8oajjz56q6228nblsLmaMy9rJowf5w1KvEXb9RVqcH0FXKjBUyTUHngQbUuJz+Wi7QPF+++/XxE6L+u+8px++umbb765C3ftdYN67Lj7l1OnPv/4yIb986wV4zaF6vbb9rjnzlvffOudzXvsuP0OOwhpIAIrGgIbZYTXzRyIIMddLcgR7Qi1e9vCSinmBx544KGHHnr44Yd7/XM///a3v/X95KSTTqq+pb3KewdG673Xnq2nTvjDBWd9p/7fU+ndJlYhC7TPJunnl0xDL7zW7tgSYlnwqmxV8fJsiYD4MpgsGvfcc48u9ZCYqkew6A8fPjz3kCPpbtXe/2e9b7n+mmef+8smW2/n+w9ss80228bP9DKugj3MRXGfi3mCvfbaS5AT+GgGFhMlnJP6ufjii/84/cfQnab/yBrlZNPFnMJOYOI5pE6d7PqWrFxaENgMIaN0cQs6iSmnzzAVTUFzj0U1uzTlIjYZadu2LT8J2XA3ClE2R6txBce7EzkXYdO8spku+tVXX22jnH4LZBV226uvvjqLMb0NTc70hz/8QU0ywX4akoaXXnrJs+Dg06r77rvvpltL2VO/w/QfT7Sne7q4gzU2Vtd4um1esa56xpMV1VoqKbKWHnHEEY8//nh1JP/+979feeWVDDIrpakmVGi82FsPLYMSDBlttDoPtoiFHKUz7Oeff55e1dLqE5zzR3ICZ5fWWIToKCtzeOyA2Z0pEUcjUxKcY8qGGZGGybtkX5IxoHd/4uOES7wKCEV1Nix11CuB7jrmwh3rFNICC05dra/eMbbf3qb3311P3KyxsdnZwoRFtmA/Ou6440455ZSzzjrLTjFgwACuXn/99bfddlvy3FkrPIxJtUJo4ZJzbvSY//77FORGgjMkE4vAKeXT6WNgk/cGY5mWQFtoRD+ugTLtT/JH/ZxGiz47PqmkCbMof/nltN8t/ta3lhZ62a3Xa/tx586dfTjwdrXCCisss8wyPFxwwQUtrLEaugN8bvYBxY3FvXoOuAzObGx8iyyySD3OvKl3B7qt3fES3I033li0Hemtttpq3/ve97797W//3//9n4gJXby4Wws+++yzf//73xFtW2bNoLk0Nj/P3l577rHcd5b98KOP773/gS+//LImea5RmuBdd9/rWd5i001223VXS4ZFxJNl2bICWpg22GCD9dZbz81soVx55ZUtfMsuu+zSSy8tyIsuuugCCyxgpXCjip53bt+k3NtOOBwwCPg//vEPT+jrr7/+2muvvfjii5Zda5yvt14F610Fpr7xjfk+GjVuyjda8O0bdX487z/60Y98+LOoeaKBw75KKclAP27ctN8ZCwMWB0NbrKWe6XdySppodS8h89xCkX7fpjSQ3YVQD+4xHHtePUJN/ZQpUwded/2EiRP36rWbyYKwcDvBp59+Kpjw6aefWgyFNME///nPN1I/dlAQASXckfqxvclvoKYPpXKuj4Ak2HGSGyAbki2pQDZHK5qMGcju2HrRkzdDi/nm8vWz3vQz9FYJSa1lxwK74YYb+ib2wx/+0Oa10korWVod5FlXpVw2I4uqdycrqsffgy/vtJY6TrYg1LSPb/2U5FgGaxISpUXbi73Vz5IoOUn0tlHrWDrLsh462ohUGM0hCBAC1r1YGKU6BGvUcsstZ823yK+//vrBkW5RfuMb3/ASxTHGeSj1jCMMSd3QoUPl3F6uzJ0/vEogsY40minbN98s7Jb3CrCMkA37hXcPbybSZUu9cW1t9jXpO/e++c1vyhmERc4guzCQmHvZs8S+/PLLzz77rD3LNxPHNLfccot0+fzzz7fEZo8YrdLlaeepo0Z9EfWZLgU3yYZF0CuRRDMCISiuBMvpCDp9oUngQppVUq0n2NrdiHZEt6kYEb7//e+7BkJTr8tM6L2k7L///r5DeflzihZvJGeeeaawOsS67LLLrESiLNbOxQXabWFLtnPfd999FcN5V5N233zzza6QwzB5SQWhYau///3vXQjO8JDgzlNW/5aS1rg0FaWODetPEWsdOs4fb9tejbjqzPLEE0/0Nefcc8/93e9+5xXQ9jBo0CCJgmjfddddHkhx5qqAezbSQ0j4PEhePaUaFgW3itZht9+02847HNL3qMP7HTtx4kSaWYSQuqWVFXZElVdKiCariRnFzR+axiu/GD16q+12vuj3l11ywdknHvcbr9TuYWcY3qqdB/vy85vf/Mad7BXC67XTd6e2XrLd0u4ZQY6N87rrrrvxxhvjxraaDBs2TKjd3mLuiRVGvhoAABAASURBVBZwMEdlAqfIPhCl5+UcwkrKyBNPPPHMM09vsVm3PX/2i9PPuUBCmaYlsrRexgyx6LNs+/nWt77ltPWZ6T/09nIreNJFSPmpatdRBihxLNzibxtwujB48GCrhFaz9rZAABfOpkWoB4uJ4Fh56xGq9Z988ukmW217z33333rDNYf86hdiAo899phkN4F7Uugs07YfH7srMH2i/y3cumBhEfy77rpLJBNYdi6f/lPtQ6mZ6yNg7/e0ehym3wJZhSfaVpXFmN6GZo0FNcYrAihjs71aPf74xz/eeuut3152uQrCTFSzl0SPsKXVY1LTMr3HWSnBYCc4hIo1lpHY+IJQr0QzlrWiHqGI3holT7BzWXYE6phjjvG52+blXOyiiy6yE1lXRc9Lu0fYcmRF9Wjfe++9SguduTgnSg/kS5Fslf+Wi0ceeURGmG7NliuSKOsY4xdccIGZ6qgkWwnJxlVWAMEiLMvXcf7552fNmtmvXz8ZM5eQEeQzQGbHvmChNgvTl4lZvCR1dmR7DcJ7771nF1g79eOqJQuvlNqldCfrC/oCwfuGEXXPhjM1G5zI+8hsODmDTc12JnEXc6+U1kl3rIzLLmbzspYKvrXUV0ewroq/pdimBmJuf8keMVqly9OECRMnTPvfLPxnj5TNmDN4jRALcSSDoLgA9WzzW0iF0qX1zoHmminTEJHYvcxfpFxFre5U+7HZOirLsI9ZHN6hkRdZeGHlrMBLnhm5Zh4Pz497aFasFe8rRfCUuq3djscee6yPL/qKp2eAkEbc365OAjdrmtCMZK/vjlEt/W4GD4y36grnT+3/28suvkA2s/X2u/7r3X9XtDZG1XoUdzWX4r3RCmig0Gvq2rWrhZ6mQfDMc89v8JPNP/7k00dHDNtsk42/8Y1vNIjZGTLihd73R9uD5enUU0/9zne+E90vOf/ss0876eo/Dtpx972++GJ0KDPKiy++2FGNEwJZeLKZWbut4PGYWzGE1BEOmn2IKZG0VkpAyZYd67uO3q+sDEDpibCnMmKVt246B7LaWuutKhYTSpwE8mkPL5uJJlu4d/iIdbt0cxT0+AP3rrnG6tnkIq0LTf/xCcv/BUEkE/jk4hAFitgpOXNZBGzqa07/cQNkA+sHP/hBNkcr2hprrBHMdLpsCfUi7ZXPwbOHOrKlmQimR6lnz56WO5CbqsrYkiWRxoPpQbMYIoDnWpoo9SQHNCFYPFUdmsh+PLCyUgcBlMCg45VYGcJDr9CO3tKa0CuT5Ze1GMt+QQ5wlYdosx/eTMxLnv3ggw9Kr+VCM+eDxCMm/tJLLzEitaVhljVl5E6yAkuoyFOmIbaqukNyXiCYFl7ZXTQ52iBUQ74hem4YI0Zr+mw0cgxpIVNaXdC//OUvwXSuQRPxJ2TnighzFtOOlnkwYUIDnLqxk430C4c9Ncj2vIim28VVVA29UtWLQoRVFaSDEV8yeLewNfq+TG4QTJ3+vX6RhReaaWse9dtuu82dR7C3zbSdmejoUfcK4Y3CaiKNsO7ImB3C0Vga4o60XoRl7oUmKS0c0dSMSh9i/vSnP3lN9H5pIhmed+u60f3DBk+ZMmWz7ts/9sRTGcwiTek72bhWCsGv6Oj1Q+pmubdMeDmJVssKpRteimahr16zgjZD5R8H/Wm3vfbbcP31nn74/sUWnQP/oPQuu+zi7MSRifOVmvf8Dj173HPHLW+/84/OXbd46ZVX681ONOygPvzF9rzxxhtj2hGVTmQlvtZx8vPPP+8U3OKA5jhZZqx14YUXtpv26tULR2zRHO5aLggBL41WkrDWp08f2bPSwh2tM12ecua5Bxx8xA49t7n3zltn8Q9Mz7QPZccyArMeAWdssmRPk0NNR3S2jLZf/9s2Z2IIaZZDNKufxVAm5Duhj11WP2ughZHsaWXWEkpDXw0Hlgj9+/e3iq6wwgrBj7dc+xpoBcuvRZgd8K6bZOSqAcPFw+4l2SjhEgFY9rGawFUOszY7scYaa1xxxRWmz6VNN93UVZiJ0S1rpmniFk+rqKXvhRdekAMIVCyGJ5xwArORO5ljKC226V4vvviiOLgBKBOwyU5UjcJIgrATV8RbvegBZUJIBB1ZYCrWcMu1L5/O9ShBCif4QFAFl9IFTbo3HcFbTYtFF13kr6+9Pis+mZsZmmdAXCruVxdm3Lhx6ReOeAzSg7rM3oQ8sS6q1FmT1Jkdmxzjnl5bo2sTlzPeY5wn2QXdE8gNgvfee5+dli1bKmcC1hdzX2aZZdJv6jNhZ+a6uFPdr/Hws+Dxc7DtiwnBvWjBgghstFKmoZW+eWG//fb77ne/6yYu4vaSSyw+fOhtq6/2/Z/us/9pZ59XpEs9TvpOFkNhF/wKstcPN60b2C3h5SRavZ27h8nu6njVJs8Kdu+93/Enn97/2KMuu+T8WbEzK3333ntvx5/ZFpb99jLPPPrAggsusN0ue1x7/Y3VZAdCsm35bnKL4lgKLALe+qyk3bt3t0QQ7C4rr7yylf300093h9sbvFS3b98+zk708k5Iee655wq1DzuC70LQW6CXX3752CqMQrAT2ERtpQixvKC5lB6i3FVl8uTJ3XfY7Yqr/3j1gItPOu5/f4cgCyXKCDS7CESW7KNNu3btGtb5l19+2cNr4/Yt3mIoSfC4xcJoZ7cSOsv0qNYc1Idln0blDzp6Wj2ql1xyCQuWBQsvyLktBT4cWYRVPbk4sk9yGoaLJ/q5555DsCZYn9mBsEwwihWmphuNp9xmm22c8c9izC1lMVnLmkh6MwFCuK1VuqyMapRacdK9XAUhsuSGsroMCzguShiJUhfjhhylJZRxZVR1DGuYNEr8REmgBELQXMqkL33TwbTTZV9v33p72j8TMNNumZsZxlRrlmIniVRixigiLu4CJHChcf2c9yijGjEl6xLGdddKbwgaen1ZwAGyJsKs4KZbB9vXZ8XCnO0rUXBm6R3OMbPjtwceeMCjGL/iIs+QOiBYF6wU1gtCGqG0lEg1rCA333wzGaHwIjJnp15odIn1jddeeexRfa8ceN32u+75n88+K9StMElUhREE3+uHVdthRryxpG1YlF0mH8vcz2n9DMkff/LJSj9Y94UXX37o3iG9dt1phvrOEXLLli0eGX5Xn/337X/qmT/vc+iECf/7BTBPrmffA+4p5ptHm6wk08iJPeaqwhUCvdXD+k6JaS/0yZgRetCFEjlkywXoCAknmmjY0R0h6aIpF/9+7/3vrbHuv95914l+lx91zuWXhDIC82YEvI76wrnFFlvYVrzQWg89axJcea2FcamllrrpppvsMhlA8GxaTgXQo22hYMGmJv+m8fwOHjxYSY511eMsHU8bTG9ha621FoIjJAbZAZ7wh2CUWDSYKlFGoDoC09Llddde65VXX6tumwc1N/35tqX+b8lmOnEL0xNPPBHPvEN3799LLLHEQQcdZBEBk/Lx2nJjXbA6WCMIFizrl6yObPkAS8mKK674xRdf3HfffUOGDEF47733nOLrPtfgZ3v9dPDNg957//2fbL7N3994s8i84nNSLMGW/qeeekoZ1SgR2LEKiyQIvqTZqu1zIaY0WmvAZRJ/hyKuRWhmorz73vt/tMmW311++ZeffWzpb31zJizMqS6HH9zHcewTTz/duesW7/77vTnlxqyM63S8y6Zbb7DeOn95YuQiiyw8K6bKvk04AqVrsxoB+45zgZVWWmnAgAHxMc16aMF0TuxExsJoc9l5550tmAlsTJbHpErwisuO4x56DukOVlcgBGL5PeOMMxi0Z+mVgMEYWl/wfUkJSXeeOPamKVFGIDsC09Jlm+648eM/+viTbOq80PrZZ5+vteYazXSm3rCd2Ts/drRpiZGNgdflN954Y+jQoT52k2NqVgdrhIXGgmX9ktWRLR/RquzUqZN8Dt/pXXI+TT/XYJWVvnf/Xbd/d/nlNt9mx6uvvT53Xo4hk/XXcrzuuusqEw0BgRFpsUg69hB5LyFoSQIdBBzfDZ1wuFjkmcCXX355/Mmn//KQI3rtstOdt94wExbmeJcfdV5f8Nu2abNp9+3uvCvrL0ie465WODBp0mSRP+6k0w498IBBV19W0VpWywiUEUhHwDmLVBUSpdMZq6XEVxZrCXW6HE3WTDtXyNXlO++8E2muVVQvi6fuDnfSqysLMZBNzSKcwE5nv6uwaX3mRgJmKwhltYxAdQSmpctxOvXOP/5Z3dzUNY3g3+abdG0Eq7PDpGPLrl27ythkwLFYWICkvD76n3baaUpy+GFZsdxYLCw91i+JHdnqE63zSCkat95wzc9673HiqWfu/6tDx40bX3zizjBiURbhdC/LN9C4Ft27d+/Vq9fiiy/et29fpyOUASv1rKzOzjX/OOhPcrXjj+k333zzhc1mVy604IIP3H3HVptvevAR/Y7tf8rkyZOb/hQmTZr0o022vPve+32aOOiX+zd9h0sPywjM2QhY6/bdd9+0D7E3pU+XtVoeX3zxRUslGRzuxP6ljN+jeOCBB5ZbbtpfY+cU2cJrdZUEO9+x2eHY9XT58MMPG/uv++VbiXk5AtPS5YUXXmj1769iD56XA2HuZ513UatWrX6wxmrk5gjv3JYnWa/cV9K27rrrrrPOOiby1ltvKRNYcWK1stBYeqxfyemyBcg7esKcF4Rj+x1xy/XXPDDykR9123Ls2P/9WxjZc19qqaW8aYizg3xhjDXd58LoZenv06fPqFGjrOaW9REjRkSEI7cWYZcgmDNUvvrX17+3xro+gLz5ynMbrDftys5Q9yZIPvu0k84/67Q/3fznH3fbqolnzE889cxKP1ivZcsWgt+I/zxkE7xIpUtlBBooAvfdd5+NybJZcbrsENoi6bNbjLP11lvjBC699FJKmTQQHDRYeOOIx04X1vAl076sIiQHGZblgBU4OV2WUsut2dQXYgjCuuuuW+Sv+2W/yeLjjz+2DSnDQ0K6Onbs2EsuuUQZrUqycxwvHuQEdijxCeVZZ50VAlNiGLLNK6KalPYySkAjM5tYI9ADoQJhHN+I0URQDbnJltPSZc51/UmXO4YOa+I7Fj8bFXffd/8yS3+rUYdobONWE0O4lSVqr732mlvcM/PYY4/deuut55xzjjtSK04sE8pk6SEHevfujTNPYa0frD7yviHOO1dbZ8MHRz4yQ3OPYFp/o9eqq65KWH311a3+EU+n+BagkSNHqnqZ0ToT+PLLL68YeG33HXZddeWVXnrm0Zmw0GS7bNt9y4fuHTJl6tRVf9j52ef/0gT9nDJlyvEnn7577/26/KjzYw80p18daYLBLF2aByNg6dt///1ff/31999/P1bIdBA+/fTTAQMGSHztUDVTK58Bd9qp9h9llv727Nkz/pqssJkcZBg0YAX2NVWr3bCZ/nW/nM/FK6+80rlz58UWWyyYFVUxXG211c4444xoVdI4+D/llFOkuaoBO9Tee+99wVf/sgku6umqAAAQAElEQVSlVrQNN9wwXlekB+IZO5rXDLADotVFgQYXPTIWJ3cEoCnQbw5QWtiJIf5k/RtvvT0HXGgaQ44bP/7td/7xu3PPFI0EU6dOTeSawtSpOYSk19Sp05hTp05tvOlaDtzHzjhjmRgyZMhll13mEZLMLbvsstdff/2gQYNOOOEEt2OC9OlyKFnwlu+RWGWVVcJVz4OHJORGKpMoFRH4UIQWoS7CxJErD7v9pi0222SfXxx49gW/m4m/hvydd96xKCerFSfrQTCFtF5rTf0BBx1+yhnnHH5Qn5uuu8q8OJwNRorQwkgRJoNBzi0xixhkB1MJ/7fkEk8+dJ+Xlp167X3VNdc1qZf2cePG77bXfr689T/2qKsHXMzbDBSZuFlX0KTjplxtNpgV5ISmNZEJ9WiaEugCBZlJrwyBqSIG0RjBVOaiII2d+eabT9lQ4GTxoRuDaSJ8UGag+LhhKsoMgzPaxIGZgJ3FeYGzzM022yxZIR0o2H1Yu+aaayTTErXbb7/d5uUg08dPXRJUHDqyYP2U7em7xBJL6AWUqhXQkREGnV/gN8Zf95sEUKiNnlSzBUzI5mhlUwnI2ZBfOiDzcdh8vT/IcX32jGqiEWE7VPIXXtGLjJzBVSBHL6PYniQMwkUGgRVeH0sJqjOBxA2jAFerjXhZcnLnjF8pBa8mVGjEJECfRCk09UrMIk1Bq2ezxbjpP/N37PjdFZY/vN8x2PMmTj/7fDFa9ttLT4/HuAkTJqiGnFGi2eomTpyYwYkmHPvi+PHjlY0UYQmuNchSEvbd8e57d3+6Kl2OZLpeyQI70WX2lAIiRCIzadIkUSJnA2fSpEnZHK0uDctFmMhozJ5z2kmnnfjbS/5wxS577kNTb/oWDoFVpgmCduSRR9JYlZKYq9KfffbZrgV5JvDPf727bpduDz3y6J9v+OPee+7OSYHicAZMnPPKDE40xa0bckbJlGfB0BmcpEnM8X2SSzQ1BdY4mZ7LlZdedNiBvzzp9LP33v9X1rWZiFWDd3n9b29ssPFmf3/jzbtuu3HH7bapOZFQik96LqGsLs3a1II5ZswY34hHjRqlHDNmTHXEMEWy2khoTDYEYXQdQ84uOZlNiFZOJsZDk1FyMqM1aeIks0k1QyjoJIMFmcbCrA4vfQXYhAplddXlc5NX66s1rBm6Wl+tcaGLMF0X17pIJHE4ydXqsSo0DBYZWi8GOTCjSBbA9MJoqZSB2YMspCeffLKmMGvzoqwApVZ29CIksMwmHUNpTWZQGVUdwxQmjRI/URIogRA0eWHSlz4X6ZvfFRQfV1ygcoHmAuXS2MR0gXI9QZBxmoV00/m6o2WZsSp4UVlzzTURQACd09viKZ2LORRDCJj7RRddJJ1N4KVFPp1UCb///e9l1ZQsdOnSRR4M7Lz44ouM14P0N4aI0lWoZsr1Ze3x902xWU2o0CShE3NRyn26RVsk6z0OjGsNm2GwHrOFjTxwzuknv/rX11+q/29uMTq3YuzYcdfdcNPJxx8ToVC2a9euZcuWHTt2JGegffv2rVu3btu2bQYnmhhs1aoVPrNzaxhnbl4CIkQiI4xAzgZOmzZtOnbMvzQsY2Zbi1Y0IO+60w4+uL/9zj9WX/fH//jnv2ZuRg3V6/Y779pky20/+eTTF558+AdrrOb+CSf5mQF3GpoygxNNcet27JgTSaZatGgh7NEru+QkfseOOTZZM7qLnljr2LHjQX32v+eOW599/i/f/2HnDz/6uKHCOHN2zv/d77fabmfnCE89PHyl762Y+FlTEB9zMYWarYnSrJ2Jio+5kwlJU3VfTK3VekowKSWww1o9GkICTpJzmQwmxvGzwclcgwhuSGazTUUrgyFkl6ZckMmOifOBkAEETkIGJ5pcaAsLflQzStYwMwhJkzsBM9em62LiRSLJoCeRq8kQ9QQGMeu1pvVoHGj6mG0epu9AoXYFXfF0xOrJaFCvNdG7iGgzEfbBgwf36NEjHYebpv/l1gcccMDYsWPpVZ24ewMhO+4FQrw2SLiXXnppOW5YUEaaq/zlL38pq5aXhxIHpM5M6T5DcEYg7b7zzjt9AZBts2lcZuXxbOaaSkIkOKKU++B4ZNznrlHSMS0YTpxDEwZDrigN9N/fXdZh9e+vsuiiixx30mnkeQ2DbrxZmHbouU1jT9wD1thDNF/7XtaLOB+0KIvwi3DS1pZcYvG/PDFyxRWW33iLbYbdM9zrZhELDcvhz6lnnnvYr4/uunGXN195zqMe9gveP7oXZIbZBixncejvrrDcK88+vuBCC27wk80effxJ514N6FtBU04afnHQ4RdeMmDb7luNGDbYLpjbMTfawgJhJwRdWLbsULZo8b91WDVBMJNqTaEIJ+k4Q+SkVz3BFOo1VesLDl3QZkFauFGQXNDDsFmQXJAWNhu8bIyJN7iT86DBgndFXL4oc6PkgNYBsDPa995776CDDrriiiteffXVpNfOO+/sLNmRMw39hx9+6JRX6iyBfvPNNxOZhX333VdfmuWXX14W261bN8qA1FaXQYMGUbKTABmi+tprrzlvDr7SUTEQEmjlAE/4IwWPbJvzPJc9d5l+aB2mipQiWTA+RazhMKhMwx4kB4jya8v0Tdde9eJLrwwf8WCaPdfLn332udTkyEMPbNeu7Vw/2aYxwWbgxR23XP+zvX7a59C+Bx7er+DnsIaa1aef/qfb1ttdM+hPF5x92oDfnd9QZpuRncdG3L39tj32+Nkv+p9yhnVqdnr+/vsfeE2Sqf/xyj+cdWr/WR+a//JvtxAQLMeRJUuUW3yVJTfsij/rPpcWygiUEWheEZDayj6d0S611FJOW0888URZr8S0ehY3TP+Rv8pNtfbr18/psvPmSy+9lAXnx/EbKVLqxRdffKONNqIMOH5G69y5M6WOCYwiCZbv0qw1/R9NDL7SUTEQEsiPnWrH6TIfHnroIak2tykjgcakYWrOwrptreaDkixjtm5/LV3+zrLf7tb1J0cdd+IXX4zGm0ewy54/M/Hee+w+j8y3nGbBCBx7VN/rrhrw8COPbbHtTv9+7/2CvWaR9tDDj260eQ/DDRt88zZbbzmL1ppv93NOP+ni88668dbbt991Ty+0s2ciN//59g032dKyOHzobT/aYL2ZHtQKG31jnSWzGTmxpFk1ZEIwkypNiWYYgdLlMgJNKwIdOnQ46qijJMbOgys8k/VKTBdYYAGJrBQ5/roMx89OmuWvCfTdY489kipBVi2RhTBIkFLLlWW6kmBpLsvRlC7jdJnxtCdxuswBTBmz0Y855piPPvrIATbNHIQVOyA/JvAkWZydbnwtXdZ23hmnTJo4acfd9yLPC/jNcSe+9fY7t1x/jcOeeWG+5RxnKAKd11935PChEydO3LT7drPh1/oHXDFwvz4HL7P0t156+pHvfHuZGXJ17iNvtcWmD95z51vvvPPjTbd+8+13GnuCRx9/Ur9j+6+/7tr3Dxu8xOL//fuYZmhQy6tF1hGynDjyYBoW5MqW2lhhksWXvkQZgTICZQQaKQIOiSN//eCDD5Ihhg4dKnO94IILhgwZ0r179549e3br1k3iK72WOkt5A86qv/Wtb8mDnfuGRokm5dVd6hyoSKlrJrsHH3ywvocccojh9JIcM5K4NHz48MMOO2zUqFFSc8Kdd96J46xaFp74PHsEK7al2wIeMGis3pZuMiBUpsvt27e7/aZBb73zjw1+splmpLkEVdMwu5NPP/tPN//5z3/648ILLVjVXirKCEyLwEILLjjyvqFrr7Xmtjv1Orb/KW6badqG/s8jyv4Z515w+MG/uuu2GyO1auhBmp89aesTD9671P8tsenW2/3hiqsbaQKy20226nnjLbddeM7p1w+8vFXLljM6kLsiltqKFZYd+TEQaiL4NZtKZRmBMgJlBApGQK4p0dxiiy3ee++9dBdHto5yZcOU0tYXX3xRWnzuuecefvjh8WvKElYZsBQWAaSz7AwaNEgqfP755+NIqT/++L9/8Jod3dkJxD83E7IysnNGqiHzjhPojTbayFgdO3Zcdtll0STrOgbk6D169CBj4mudnbAFG87RRuvWrZP9N9bnyJjJlemyDst+e+kbr73qs89Hbdh1iw8+/Ihm7sP48eN7/7zPlddcd9nF56+26n//guG5b5rljBoqAn+84tLTTz7hpltv3/mn+4z64ouGMht23nzr7e+v3fnvb75586CBB+y3TyjLMonAsNtv7nvIgWef/7s+h/QdNyP/VnliIUN4+ZVXv7fGup+PGnXf0Nu6b7l5BrNIU6y2ykiRLbsQspS62kI0VevzNSWjjEAZgTICX0VArinRdBi81FJL0TmddUYr8XVqu/rqq0tz5c1SVRmtM2AHvY57b7/99jiB7tWrl+r++++PL1EeOXKknFgXrThXXHGFpFmTcptttiEkkFKzn1QJjBs9G6+88sryyy/PfjZtNrfG+hyZsWU5hFCqcqZ2uqxhrR+s/swj9397mWW6bLq1E7XPPv+ccu7A6DFjLr/qmlV/2PmFF192rtyt60/mjnmVs2jsCOyyQ8/bb7ruH//816bdt3/r7X801HB3DB3WY4fdFl9ssadGDvfcNZTZucxOn1/s643l4cce36zH9h988GFDzc4Lc89d9lhj9e8/fN9dBX/7xQLqHMJZMlhAw5NYT8kWWUpAU01DL1UEZYLoWE1OCKVQRqCMQBmB7Aj07t1bKowjwZXpKp3OOqOVQINWTQhyZYJSEwI5oOmyyy4bMGAAsu4ViSxrkmZN8uY77riDkAHG/5+9u4GytKrOxI/93TREzR90VowS0EwCwogR/BxwCMmAgGBiiIaQkAwJYUiUoLDEkKgYicQ/2BAVkYjSsUFQFIEGAYNg40fz5RdG1BlxZXBYUTvRZAl0dxUwv64Nh5d773vOqe7q6qrqc9fDZp99nvOcffZ773t3vV00oRnW1hB+sraLIMvvxgeWp6lpc9KtOG7U7uS2Dn+j45+R8LT8oyv+/i/f9MZLLrv8xfv/+sFH/NYpf/GWCy/6yGWXX/Gpq6+ddZD5m9/y9kN+4zW/8pL/9s6zzvmTP/rDm2+4+nl77Tny7Fs6+C8/+OGsK+AWSlgptnS1p1D/Pz/n2as++dFnPuPnDjzkiPe8/+83X9ln6sST3/ybr3rl6s9c4xO3+YJzWOHFL9znM6uucMD9//thH/vEpzibiT/+0xPfceZZJ/7pn3zqspVLly6pVBsfH3cPjTZXB8zvLjQrCOGkKXdhMEx3Xn5CTKVhc1oFZmYF1m/YsIW+CGad7De/9a3pvEazrj5bKOE7v/LVLVT2uDOn+3m6J0ckZkf8MkbKBuP3jnrNV29d/emrLt9zj90/8amrz3jXuzWdb3jTabMOMtfoP2m77S4879y7v7LmTW94/VOevHV+X3mXZz3zG9+8e9YVcAslrBQKkt5yM9/xtrnsIx96/Ql/svw95/3hqUtDXAAAEABJREFUcX+2OQk/9wUv9Zk675yz3vLmU6L92hy1yaydrdynP21nP1e8+ohXugu95e2b/jfEa2f3eP6Lb7xp9bVXfOx1//O4+nKkW+eCBQvmT/yKM6lYHlfQTVYcBJENORC0FI+heKwKa9jQKjBjK7D3f9nzpz+9fwt9Ecw62Ws+fcP0/M2zv/ic3bwlZl19tlDCF1/6cdXYEtDuknXTdnMOawhxD3frXrhwYa5dRgVfC/6Y8qx3/vU93/xKH777T1/+xh1f+Nqtq/sI3XiQu5E+/1tfvRX6ZlP8f3/jzn+684tkU2Skg/axlR96/t7/ZdGiRc61tXDam944Mr0I/q+77rjr9s8rZgzz9jtfv/2bX/5SnmPWwb/9tduQ+Xng+FmiWEm0r992S83WtrM1TU4fFGRrXYtN21dz8+d/dvwVl33ktjvufPl/P+zffvyTyep869vf0a7puL508w3/9aUvmuzybZnvpvY3b/+r5e/6m8s+ccUrXnXkg+vWTbYad375q7+41z5Pe9rOPmi//Eu/ONnl+N4ArExYcG9lBUEbLR4QjCk3XDBk46mzOF/Eko134cf+AmaRhlaBmVmBF+37gpp7/tb4unm8Myl+3cTXkCS1Fr7IYpixaDDyO/GWf7x2Gq7UHr/8S5n0YkqGDh5+xqL54mYznDTlWtfUR8fi+10908I+B61GEE0nmWduibK7FeuJKbs565jdw93MY8gGyu2y2zoEO2NrOLEcE8LPWEk7QIawCVP2rdTEpB+W04cghO3jpDiaQ6XhlDg0a3TQoMis4RCppGEG8CH8qbJFQYTAVO1IJwRZ/vP22vMz11yxdOnSfV52wNXXXidSiQsvWnnIb7xm7+ft9bVbb3nqU54cajVrvXWRIU8OQtgiEw3ytMnOEoT8qiKhuxwZupHDDz34iks/8pOf/PvzXrjf6s9/sTuV9//27HOPPPoPf+1X/9uN135q4Ff0Ri60LwxMpU9xur3iuL0aukZBNuSIJ8txFxbB6TLFM8DPzMYUDoSft7auZOZ1YjakwkZkpC0SuquQoRsZ6ddwYiEmhJ+xrqniZAibMGXfSk1M+mE5edTTHCovNdnZ+q1rmDUcGVbSMAP4EP5U2aIgQmCqdqQTgiw/D5xAnmYWja2Bty4y5MlBCFtkokGeNtlZgpBfVSTEcjdtLTILI2/R8zZkX2NjY4TYLGsDQnwy87SY9XylRtNXCyDHqoy1u3KwGY4pBEli8ouwNWZxdwRMKApi1ghGkvIsCiKEJicPNBmyeZpZNJADPwNSMsTMcNIU2saDj4+nyEiHJiY7crYbtDUadIPDPjX7Ig9PDUfQ8CsPnrbe6f/72Y+v/NCrDj/0z0/5C32Yd3URR/3BH5/xrrNPfeOJF13wPmmQssTW/CIqk6QGlKdKkJRKskVBhGAWyXGWIo1gMIcvzXOevet1V13+0he/8Nj/+foLV6xUxjw2bBg7/LeO+sCFF73rjLed864zakokvQFapLF+/foNE680jFOLrVu3joXgBMEQqMnQ7TiRBTNAsxxGckhFXIZK1EcLTti8YHBYgkncMAObYjpXhmMKgSbw8whBtkhzZFvnaTFrd8yipvQAOVZlLKmoZIZjCk2SmPwibI1Z3N1BMKEoSKpGMJKUZ1EQITQ5eaDJkM3TzKKBHPgZkJIhZoaTptBqDk4Tk00L+xxbo0EfIeLU7Iscw7xFw688eHFre9ULxlvIkiIqNR0EpjZJlawRdIRgFslxlj6amqSpdBZ38gceeMAWaYpffrpMqwbyhnpmkYwANYI4NczghLUkD7RAkZYnpFlqyc87mH6wy3PSLHLy+5waTqytZwa/xtIM5Mk4CGE5GdRwLK+kYUKQwxr2YZiwePHiM9/+lg+8d7k+7NW/c4xPVN/aH//kJ8970X5f/fpdV37s4j/4vaOCRhDCL1pMqKHh1DCnnJYEp2f3pUuWXPDe5aee/Odn/O3Zf3Dcn2Y2/eGP1u794v3u+5d/+cyqTx5+6CvcPZFBwkV0aemDScHCNAyOWy34FnSH5SB4SsGiLVy4cP78+TEMsngRNUycQFFNGphFWg0niSBDGo50ioSRq/JBmpDnxCxaIIZ9toaT1iJvlwY9TnDC9lAeD6MFHg9tnketUgDTG6OeXGQSLHKCUM8Mfo2lGciTcRDCcjKo4VheScOEIIc17EORkBZWMtEgrco7mJDnmA1OWMM8ppZmrxAMa5hHDQ3HrdvtneXPn3gl2XmLsi93eZ+lLGXjJJqnJjXMjexFi3xthJO3UiWb55i1O0GWnwfByiSp0cyrxSzN+iRjScbal2BlkvZFzqjFFE1MNoYZi0OQzXBMISgOJr8IW9cwaaKxRUE0mkUmQn2SNKG4NQIaZU4Xv3bAy2++/up/vvfeX977Rd/6zv9Kn67k3HzLF17w0gPGx8a/+eU1e+25R1pLqj5JTPy0ts/BkWTfbDeOhtyNjPRV29bsyNmBIGaNpq2hhlkUPPaYoz/2kQ/d+ZWvPfu5v/J/7v1+qnlyLrv8ihe//Nd//ud+7o7Pf/bZu+0q4YymY0oMgeUDfoAvuHTpUkM+C35eYvGdZfvtt48hf8mSJWkYQTSrKj/ayHmm0+EATUhbiPTBEon1zaY4Ncw0zDv5JNNadYM07HOkVyOIJskaZmzk6oSTtzIkm+eYtTtBlp8HwcokqdHMq5l1XWjWJ2lJHvYlWJmkfZHzgmZpYrL8PHAIskWa4mDmaTFr6xqmTdHYWJWxaDSLTIT6JGlCZtM0hUY5DfscGULfbIqTqk8SEz+t7XNwJNk3242jIXcjI30HsTU7cnYgiFmjaWvoY/pYpe1w3Lrd5N29ly1bxu/uOGVPl20509DyaRWYtgo865k//7kbVv3K8593yKt++7rP3Jj29RPqW/76nf/jT/7s1a965T99+Usp3pwprMA+L3j+jddesesuzzrwkFd94Uu3JmVPeY9//Rvf/Ja3/4/f/90bVn0yxfscfA8VPFpw1VjPiTnIgnxWUG8hIs7nDMBt1w0X3J2DOUBow1aBVoFWgVaBGVsBLTiMvHu3dnnGXrWW2CyrwLLtt7/84otO/vM/O+HEk0/5i7dosH56//37/dqhl19x5blnvfP//5u3z7LzzKp0f2bHHT/1sZW/+5rf+r1jj3/HmWfpZf/txz9+6a8evObW2z+64oN/eerJxdPohjXBbpSaXYjbJZ3uQrOGWmEW3yW2BBNEtjSafqtAq0CrQKvA1qpAa5e3VuXbvnOzAiccd+zFH77g+n/87K8d8hsv/K8H/uu//euqT1z6ykMOnpunnWGn+qs3n3LOu/7mko9dfuhvvGafl/3qjjvscN1Vl79o3xcMpKnHjWZXv5sa4nCiIcaPnjgF47GxoM4Yh8PyOabwG1oFWgVaBVoF6isw65itXZ51l6wlPNMr8JIX7fuZVVc88OCDz3n2bt+440u77foLMz3jOZTf4Ye9QvH/7/+9b7+XveSGqz/xn57+tIHDaZTHn/h/5tM9D3AMtcIsmOUDP0GvHI0yJwWb0yrQKtAq0CowVyvQ2uW5emXbubZmBZ76lCf/8e+/5u/ft3z+/Fn9EduaNZzU3praeBJs1X96+tPu/NLNH/7Ae+dP/I/3TIF4IGgLFy70VHjevI1XJ2a7fjDDDjTKEWy2VaBVoFWgVWCbqsDGb4tt6sDtsK0C01OBq6+++swzz5yevdou8cA4WuFocMMXT1AlnbEeWqPM8Zg5OGGjXY6giFX4EeQ0tAq0Csz+CrQTtApsegVau7zptWsrWwX6KrB27dr77rvvlltu6SO0+NRWQBOstY1GmUNcQ6zlZU3FUBOMYFYwpvTNMSViKpg6ZhDBjAhOQ6tAq0CrQKvAtlyB1i5vy1d/Rp59TiT1xS9+0Tm0XOvXr+c0bOkKaG1toSFmIYbqv3DhQn50vTErqBvWHOuVWcCPKUxBZAjHVEOrQKtAq0CrQKtAa5fbe6BVYOor8MlPPvq3/L7zne+cevWm2KmAThcE2AA/mmBOQB/M0SgDBziAzxpyWLAQGTiGMxY/+7M/m3Kb4ammPLdRpx27VaBVYE5UoLXLc+IytkPMpAr8+7//+7e//e3I6B//8R/DaXZLVECb61FxKOtxOdH+hp+GnIiYTc3l+Pi4tfEg2UNonFmEz3zmM5GtzBctWhR+s60CrQKtAq0CW6gC83zfZODbxcYZQnfK91B3mPHJZmbTFBqkYcapp408zrAyQRiOD0fQYDg+EMGBgeDwECcwPDUcCSY7PNWNFAmTJRNURra7MONXMutpmJDZMabqk6xn2hdCv89++ctfJhh48MEH77vvvj4mqUAfoRvH7A4zvq0zs2lqUoKVZDRIW/Q5OJuW5Pj4+NjYGBvKdJIT9580FfppGMwYapGRIfXQITJgLYGB4MghGoyc6gZxoBvJ+ANMx6nBwKquvuWZ2cTEwUzDvFPPJJuXMotTL+jyWVIDspW0emalYOVx7AtFTWpoUGTiQCWthkkKLcDPACczOzBVQ8aJgw+s7Rvi90114/U0TOiuHenXJ1nPtC+M3G4giOaH/4HgwBAnMBAfOcQcGR8OOs5wcDgyKcFKMhoM7zUQwckkaQohliQnhgN23vrsa926dRZs2LAhy9o4Gd9DG73SP9TkVGJtnHf5yW70sv8QrEySYOXWoZnd9tFJGfr+fnTQ/69KQQWXpOP0Kz0+E5oassdDozw0ScKoySfEcOz+hFDPAA16Jp8QrtSMJGsqaV+aT9hj1IBUJdNqgsApooZ2zjnn+AQmfOhDH+qTdWrXukaTguM4FCcPHIKU8zSzBDE5eRD0qWHztJh1nJqtcWzNxqqMJWhrn4vE8YZ/4IEHuhFTpCRJk4/AirDhc4iwscqlwRQJjvhImC1yYqEkkcPPWGq2zhC6U8GMhMWdzqmPP/74F/S8VqxYYYlrumHDBvxhRJJJcJgQEUnaK/z/c+/3L7/iqgxWffqGzGya+tTV11656tNpmHGuuua6T3zq6gzBFALa1ddezy8CuZIpQ3lmBEkpiwsdleTn4VqkSuaZoZnnmHV9433Lz6NS0JtBko6TV4vZ0EwfqAgOWzRJwvDUQATH7gPBkUM0GDk1EKzUjCS91QeWDw/tS3M4PhAhVcm0kCBwiqik2VoCRTWndq2nVtO+BCkXd5ckZpFG0KeGLTIRHKdmaxxbs5YMw8cqbUeQ73MxTBOZtyT7Wrp0qR/iFy9enGVtnPRngnbd6JX+oUaTcom4ZMGCBWSLNIIeFxVpCAsWLLA1pwianjwVaQgyBE4e/sCUINk8zayzYHKKoIZcrKStZQhFQZwaQfvKELMoiEBT2Tl50ERj8zSzlYJOLUmalhRBE4qVpEOwmOT3v/99n4WEW2+91cKRmFSStsYfqdMN4mAWk7QEzak5eRB0lhomHe8K/GIlcTDxi0BDToLbT7yskjybgJM+2nF2xJiNIX+HHXbYcccdOZd0zToAABAASURBVN4YbBE07ZKWZ/iRZIYQU2qokjWC+I7j1OkUhvzzzz//zonX9ddfv++++7ITo43mmGOOIZ5J2KltTYR4BpFkEH71FUec+lenZ/AXb/3rzGyaevNb3g5pmHEqBf/y9DNOe9s7MjrdqUpNS/JJvukv33bDjTerocsd9clb18JVy3NilqarE37Gur6uDmQ4MeWtS5BsDDPWWTAzhDRFDdl7MkVGOraWIYyc7QZxagTtK0PM7to+n6ay982mOE00NkX6nEpBp5YkzT6dbpwmFCtpCcGaJNFqBCeVJE18OeSBg1mfZF7NLMF4n/MT+hzvCvxiJXEw+0S626Eh9wnO83nOgFBmdnOmapRxoGYXNCgycaBIQ6ikTYqJ7BPFThUkCVOllnSmXLNesIbpR0+p1jDRKkGTIFTyM7Thvzzuvvvuu/feezNLKqfq06tkVtIq0wtaaIaNSMbW0IY57s7xOfIkYEA84q5mxDHd/sJnY5ZDEzhFpCV5ZqVaiNRrkoVYxRnA05/+dL3vQNAw+MPWVGB4qi+C/+6/PeOeb36lQQVUI95aHOgrWorjQBpmnHpaJTP2qnynBblobQ1F2mQJU65ZL1jDTFd8sufK8GnaGjKcrT5Vn14ls5I2qYOHZtjiwj5aN971hwXbf+qnPg2tAlNWgXe84x3DWtddd91wcG5FpvU0+mD3Mu2yP+DrbiyoRRAxxfKjXeY3tAq0CrQKtAq0CmxyBVq7vMmlawtbBUZU4NOf/vRtt932+c9//jnPec6RRx7Jhz/6oz8aQW2hzaiAPtjq9JyGH9Axc4bjgrMdb33rW9PvLR900EGrVq3ab7/9UoSzevXq2X7Gln+rwMyoQMuiVWCwAq1dHqxIG7cKbE4FtHEBfVs83TTkbI5mWztcAeX1jHkgrksGwbCcuYTTTz994y8pT/zz+te/fvny5RPu42b//fefS+dtZ2kVaBVoFZg5FWjt8sy5Fi2TSVag0bftCuiYh38OSb+GMYdrs3bt2i996Uu77LLLySeffPfdd8/hk7ajtQq0CrQKzJAKtHZ5hlyIlkarQKvApCsw/BTZs3xPnYfb6ElLz+AF11xzzUte8pKdd955BufYUpt8BdqKVoFWgRlcgdYuz+CL01JrFWgV6KmARnlsbIw1n5rjeN7MCs5VrFixwqPlI488cuCAq1evNjUQbMNWgVaBVoFWgSmpQGuXJ1fGxm4VaBWYCRXQE4NGeeHChTMhn+nJ4a1vfate+d3vfvfwXyH3ve99b9ddd52eNNourQKtAq0C21oFWru8rV3xdt5WgTlSgQULFsyfP3+OHKZ0jPhf+u22227nn39+9MrsXnvtdfTRR79g4nXRRRdtwq9nlLbdrPm1a9fq72U+oCJ+xBFHxLPw7kNx5AiyE2d63MSUuLX80DQECo/zHvPEbco+Fhj89wEHHNB+7VuJGloFWgUqK9Da5cpCNVqrQKtAq8BWq4DmWKMc/+u+lIRh+nsxbrrppt133z1NzWRnp512OvPMMz/xiU90G1ZN8A9+8IMXvvCFMneulStX6mhvueWW10+8Tj/9dPGR2H///VGWd/6eEH4w6aT6XH/99YcddhjBiMyicsVZmm0VaBUoVmCLEuY9XHo98sgjJcqj8xJ91Juifz3ySO3WlRvKECrJlbRHHqlN8pFHHnnooYeKsmhQpNUTqNkXikswixwEtPoyIoNVU4VQC5vXrOGEAiaEP1VWiWo0caBm00oaqXomchHUAkUmAiZbRCWNTjCL7160gCVFYBY5W4jgXbFpyhbWIHM0U4F8Ajg2Cg5nsug+6x3+y6HNhqDO/qqrrmJjyGqI/TzQjQj24Qtf+ILHxX838fKgetmyZd/73vcS+cYbb9x1113thZMwnIx2vNuvp+UZR3GiMjU2dGqYlRyC9QlgFj819kUDzlSBmn2hKIhZ5CCgOTinBshQw6zkhFrY/JIaTihgQvhTaCtrXrl1JU3+9UzkIqgFikwETLaIPM27KxHC6avkvAezr3Xr1m3YsIHNsh5EGB8ft2uelmbHxsaS3+f447b169fbvY+Q4rE7myIjHWr1SSLXJGlTTBi5YzcYTLYbHPZJxaUanhqOIFfWBw1C4f777//pT3/6HxOv+++/P4JhpefUbAz7LEK8QfsI3TiyrdlucNhHQHOi4amBCA4MBIeH1Lz1FXN4ajhCEIbjA5FIkh2IDw9jd++34aluJGhq3g32+chTnmSNoH2f9KQnsX2JdeNo6gPd4BP9jSMEp67ZHQ0ZNi7r/8e+kizSQiA0w89Y6UGGkKYIJj/jeD+4SVYmidxlejN38aMf/SgNfRiT7w3fXdVNJpJ0X+0Gh300lYy4bDcBnvXGE9yBB7oe7lIb6GJPOukkTW9qajnHHnvsK1/5yqOPPtoD4P32288saG3vuusuywMve9nLbEHQXldeeeVzn/vcH/7whzHlgJw99tjDU+duAsP+NddcU9mdEwx4mynvwKWJWg1Y7xw0qwbiI4fIyj5yqhukhgnd4EhfkmjsyNkUxPGG8f5JkYyD7PgZQkzZFA1imLGYTs1mOKYQZAj8IpBtzeaZCGhOlKeZxQFOHtR8BhUzT4tZghB+xkaSbIYTU3aHIhNHkmoeq/IWecqTrBG0r/sPm08vZtGcGmLYZxGcum93Hys6sRYNGWI4YOcpXx4LFizIE8zab/78+YsWLeIXEWQ2z1SyefPmsXmaWVKYnCIkuXDhwiINgSYypwhb1ySJUymIVplkaEq1PkmfZzdxNlbx3YbScoKQhn0OjiRr3hgU6utTyUQDynk4oAzlmafFLEGwJIZ91sEDfYQUD7UaQde6Pkm7py36HBy7s32EFLdvMUNkUirJ8ougWcPEgZrdK89Czf0HuZghQiRZ3J0mZpE2KUFJ1gjSVHNM4IOfbLs4+OCDY+hHX44ekQU3+u4n2sKEAcEUH3DUcPHixRG0+5RDF6vTBc3uvvvue8YZZ9ji53/+57WzgnDhhRdeffXVy5cvRzDUEIPWea+99sJMWLt27Ve/+lWd9PHHH7/zzjurg4jZf/7nf1aH7bffng84em5dePfpMv8HP/iB2clCWSxRIk4R3jw+3UUaAk1kTh5otva2zNPM4tQIYqJVJhmacrAqj/okaealzOJI0ruXX0T91pVMNMjuu3FSWWQoz42D0j8EwZI80cEDeZrZGjU0aq51fZL4VuWBY3c2TzNr3+KR0UipJMsvgmYNEwf6dheH2Ct/lnk7ZF/+kEtCbJa1g3sTmg49T4tZasrBxrDPIvhqcePuI6S43WsE0ZTMTw9pYcZZunQpzQwhpiLJJUuWxDBjCXqnZggxFUn6woth3tqXphwyNLNqqJLIaNJgn/rUpz7lKU958pOf/NSnPnXHHXcUCeBgWhLDPovmveUd1kfoxmP3oqbEbE25u3akj0azKEhKGb37R4oMBGlCUVOStmYHlg8PqXmzuTrDU90INT+6+Ox0g30+NYfqm01x6WGyKdLnVNKcxY9VbJ9ON+5TY+tiJR2EIGZ37Ug/BEdOdYPU3H/Usxvs8xXc1pVJFml2kaRPbpGp4JLEtKQIb13MPs306YtK9tG6u+QFE9NZ9NwxtMsmQAurPQVd6apVq6JbNeRTS//53YEHHnj++efvsssur33ta7XIHirjwBFHHHHvvfdecsklCPgJx0y80tCzYUnqpI866qj3vOc9u+222ze/+U2zl1566eGHH650fNh7773j95W14/rv5D/96U83O1moNmUlKhYczR1gar9uZOt9LgcHz8Pb25stzzEbSbpP8ouwL82ag/sYItcIOk5RkFT7uskXUxlVKc8x67q0rxt1GICPlcpE0EfbZyf8Ydv+Uz+1moNwf/HBALfCgEMKsm7iLPj6ZLcJtEO2CrQKTFcFtLCeCkO3QzXUrUpB08sHj5kNf/SjHz3taU/baaedrrzySkHgfPazn33JS14SBJzA3XfffcABB2jBDT1Nv+eee172spfx0U4//fQXvvCFV111leUeLe+zzz7igal9uhyazbYKtApsgxVo7fIcvOj6Y48DWf0x64RhOSDIBvjRUsew2VaBVoFWgS1agfR02YNkGP7d5eOPP/7II4/UVUcanB/+8Id65d133/2mm27SEGuONdkeIXswGRzW7F577XXccceJe2gqAt0ufKB392A70TBnGVq6rQKtAtNegdYuT3vJt8CGul5Iwjpgvj9WAH98xgcdc3quzBcBDnAaWgVaBVoFpqEC2l8tb0ALq819xjOesbzz18BpZKWhadZMBy699NKjH/vrpUXe+ta3WsVBS9BPX3TRRYbdvyKj25p7LL2q85shlq9evRq/oVWgVaBVoKYCrV2uqdKmcKZtjQfJCd1NU3M8f+J/5RD9dPj66UD0yu23Mrp1a36rQKvA5lQg/7vLobx27dojjjjCU+TTTjvtqquuuvHGG7v9q+e+muZoqdnXvva1K1eu5AQ8XQ6RZLXFJ5xwwnnnnYdwzz33aLUfeOABswOt+WGdv3cZc//998dpaBVoFWgVqKlAa5drqjQTOfrdsbExVh8c/S4n2t9IN/nRN8cQExAMwZQn0IYNrQKtAttUBT7wgQ9oWG+++eb/+I//qDl4PSf97rKWtAvdKhGtrc5Yo3zmmWfe9Nj/WkUHjBlN88tf/vJXvOIVOAkDT5fFPWAmBffff7/mWIvclTrxxBMPPfTQt73tbZgJw0+XD2j/Yz8VbGgVaBWoq0Brl+vqNFNZWt6FCxd6ZgxyNGRTQ8wHbTQLMYtpiS45oGM21dAq0CqwrVXg+9///hvf+EZd4+/8zu988pOf3LS/W22gaB7ZeqY7EIyhnjhmdcapu42psAimPve5z33605/mZIBpiY08VPYcOoYigd0nfstZu5xRMDUyh1BotlWgVWBuV2ATTtfa5U0o2nQv0e96iuxZMoxP/O9gZDDQ5kaLjAnJRwZrU8TCgOUQfrOtAq0C23IFvvOd75xxxhmHHHLIb//2b3/oQx/68Y9/vC1Xo529VaBVoFVguAKtXR6uyYyLaHk9GNbyanB1w4ZSNGRBhIWIGKJ5hCzCB35MERFsaBWYJRVoaeYqcN7E6wMf+MAFF1ww4RbMBz/4wfe///2JdPvttw+rf/e73/3whz/86le/+qCDDjrrrLO22+6RYc62HLnqU59UmVe+8pV+tHjFE1+CXRxxxBFHHXXU7/7u7/5G5+WnkQH86cTrda973Rve8IYJ9089FB9AumTbcuXb2VsFtnoFWru81S/BYAKaWs+D2ZgIR8sLCxYs0ArrgCM40ASbsiRNxW9csEEz1dAq0CowNyqwePHilROvSy655KMf/eiEWzCXXXbZxRdfnEhf//rXB0rhxiLiNuI+o887+eSTt9vuSdu1V6cCv/iff+moo456zWtes//Qa9cnvn7hF35h0dDrX4ZergLcdddd3/jGNzjwmaFXumTdvzivk1RzZ0vcH3VFAAAQAElEQVQFWp6zuwKtXZ4p1y++qzTKoOVlISVn1nBsbIzj+yzi4SDHMNpihBjiew4N4QhquNmGVoFWgdlegS8+9vrc5z530003PTbK/Vsb9vnPfz4xjj322G4R/Fy9++67n3baaatXr77hhht+//d/vzs7hT799B/qDcs+8MADxx9/PM7w1IoVKzyyXbt2LQ4FDs7dd9999NFH8wUtTP9hXzjXXXedph+HoOX4m4nd93juMcccY8dTTz31zU98/d0TX+eee+5FF13kUb2fUhKkMYBbJl4333yzmk+4t3xh6JUumWu9mfm35a0CrQKbXIHWLm9y6aZsoX5XH6yvBb6mFqjz2QBfHyzuwQ8bweiP+aZYMOtrjwPRTJuyFtMUK96Qq0CbaxXYlirgLvHSl770jDPO0IpdfPHFv/mbvzm1p9eqHnDAAdG8Ro979tlnr1q1KkVs1+Xst99+t99++0knnRQE1nIENH3q3nvv/Z73vIcfED/hhBM0r4bxd8+9fuKl77TKQ1mPgE01tAq0CrQKbH4F5nn0mIFOyx4ZQkyhQQ0z+Hq4cDJW74hGNsOJKZxKJlplkpWalTR5BpOToEVev379homXWfE4si8wfW1EcMIxK3P5G8YqET6mID8gEg4rbpZatNeGgnlYDnlOzEqmkmlfKJIR0CD0MxYHGTIcUwiYwC+i8jihyRYFcWgWd0fDgaIgQiUN09aUOXkQrKHhVDJtV8ms16w8C8FK5qSSJAuW5IEDeY5ZnMr6IMdxLOFngEAzQ0hTA4LPeMYzzj///M9+9rPnnHPOr//6r/txOpjUMMPnbCY8sfbwWxO7fPnyN73pTZrdCy+88M4777z++uv33Xff173udaGvLdbjig/jkEMOCQ57+sSLEwjxgw8+eKeddorIlraqDUrERokyFk0+GUKaoobMpshIB6GGZm0wOQ9l/wnapJLM6m2cpOlfYTkZ4ECGkKZkWMlUHyiSEdAgbdHn4CBDHyHiCJgQw7ytPE5osnk1szjAyQNHhpCnxWwlDbnyOAQlgJ8HTiWTTiUzr9nNv+vTH8C8iW6t1+jM7KRp62VMTKBFqzcxKhuHLJJsGrkWmQiSlAMnj/ok7U5z3bp1eUGbSpJsnmaWICaHJnDAcr64vdiIUOOzhmYtDN+fNj744IP333+/OAIrrpJ8HMORMAV5TlpIsIZJEFPOaWHGwaTppBlOTGFSDj9jqUGGkKZkSDMNM459KzUxISMVU9Ti0sQwY+uTpFlzHBzI7Jim0GrOguMsbFqYcRwHs3i5be04GZ00hUYwDfscHEn2zQ7EK5mShIG1I4chWHNqt+ORCsNBmgRheKobkSF0I32+S2MqCR544IF77rmnP4wS7EIlU5KczYcbl7vWPvvs8773vY9z0EEHaY5ZT5HZ448/fpdddjnrrLM8Hh651ymnnIKAZlXAE2jPp62NYdjzzjuPE78QgaBH99T5uOOO++lPfzpSdtOCUWqVTGXslm7AR3YRB4Ijh2pO091+5GwK2tTHgWyK9DkEMftmU5wgtRqmJZXM2Jq1JI8QLDIRMNUnrxazmI7jXDHMWEzKGUJMUYPw81aGNPOcmLVvpSYmxKqMpVa5dX2SlZr2hUxuaQqt5iw4PjVsWphxHAezeLlt7Th9Om4FCDGLRjD8YTtvaenlCeWSJUtKrKWLFi3CLNIQlixZ4pEnJw80t3LI08xieoDKKYJazdZ0aDqOOzg/D5rOnudQ8/DGVcEM4C9btoxdunRp7BLDYDpOGorssMMOMVy8eDFyGpIiGyIZa5Uk2Qwnpghihp+xUkKTZIaTpjAhDfuc0JRAHyHFqTk1foqMdBBkiDxydiBoXxgIDg9pEqypJJp3mjyHRboRgvVJUqvZ2kHsTrm70Ui/UtCmPgvsSJGBYGh6lw7EB4aTShK5eBzpKXiRFmk4Tg3TvpWVDMGaU9cniRnZ5u2kksxLxSxBd6rwOZuPO+64wxNlLazOda+99vKk2YPkww47zAPmlStXuptdcsklOt0MPv7xj3sQ7sEz/s/8zM+cccYZnkxLjJRg4IQTTuCQ9RibfvwyxgUXXEAfc6qgON45PrNRn7z15qm8iDS9hYrvH9vRlAMnDx8Hn0SyeZpZgpXHsS9NS/KwNU02TzNLEJOTh1OgVSaJCXlBs6EpAX4e1JwaP09DkCFynhaz9oXwM5YmwZpKolUK1ifp1DVb29fuUs0cJKYqBW3qs8DGqrwNzeIHJ5+kmwNCbESQ33ecqfzdZT8T2LgIdxCooVUKFqU2gWDrmiQpY7IZIIyPj/sxCIfPQgy9LZLPiWHidIfxLve+dDkjjl+PyrOEYEoghiMtTr0m8kiRTQtSq9+6cguaUEOe8q1rNp0UR4Zb8SyVWztRJRPNicCS6UflvpW0LZd/ZQKKueVySMpdZ+3atWeffXZ0sRH3AFjrHI+HPQDWQx911FF3dl564te+9rWdwJ2HHnroEUccoZ8+99xzr7nmmoMPPvjZz342GkHBwIoVK+6+++7vfve7e+yxh3jA96jn1rvvvnsMZ6x1XbbEFazUnPKyTGpfZy8mgFOviVwUrCdQq9+6UpYm1JCnfOuaTSfFkeFWPEvl1k5UyURzIrBkGFPZLg+rt4gKRGes39XpQjS7roqpuCpBSEN/HMAHs8gsv6FVoFWgVWDWVUB3u/fee3fT9kjY018NdHq6HLP63dWrV4c/YHfaaacrr7xSA+0Zsw74gQce0GTvvPPOxxxzjGDgyCOP9Az7tNNOQ+4uJ6ufPumkk3bdddduvPmtAq0CrQI1FUic1i6nUmwpp9sZ20MHzEaLHL5hcIaHmuzWLqtPQ6tAq8BsrICO9sADD+xmPvx02awO+K677tIB8+Haa6/V4waOP/74e++9N54uRyQ9nI5h2DvuuCM9SNZSn3rqqZdeeilZCUQ/3f6WDIVtaBVoFdjkCrR2eZNLV7sw+t3oj62JISci0SKHL+jx88KFCxNHpKFVoFWgVIE2PwsqcP/99+uJV65cOfx0WbN70003/ehHP4pjHHLIIdHjsp4oP/OZz4yny4bg+fQznvGMAw44gI5hQDd89913C0b3fNBBB61atUpjHUO279F17Nhsq0CrQKtAvgKtXc7XZwpmo/dNDXE8SKYbjlkdMysCyeE3tAq0CrQKzIEK6FxPOumk73znO86yyy67sF3867/+6wUXXLB8+fKzzz57xYoV3akB36zG95577rnqqquOPfbYQw891LNnj5CDtvvuu+u5o3u+/vrrDzvssIF+OmjNtgrM+Aq0BGdiBVq7vMWvSuqGx8bGxideInaNBpo/f/58VqShVaBVoFVg7lVA56qLffWrX3344Ydvv/32ccAPf/jDRx999LJlyz74wQ8ed9xxHg97hKwVFrz00ku1xQmnnnpq/DKGWTqnn346hWiOTzzxRE0zpr6ZTRh+umyqPWBWt4ZWgVaBTatAa5c3rW6TWzV//vx4bOyJss7YMNYbhtPs7KtAy7hVoFWgogL64GhwjznmGL4VOmaRU045JXpffsRN8QUHcOaZZ+qkBc3idBFNs6nzzz+fzSPt0lVofqtAq0CrQE0FWrtcU6XN5eiVFzz2Sr3y5oq29a0CrQKtAq0CrQJTUoEm0irQKpCtQGuXs+WZusmHH374oYceGh8ff+ihh8bGxgh7zKyN5jS0CrQKtAq0CrQKtAq0CrQKzNgKtHZ5mi6Nzjh+9ULfzPeMGSa7d+O3CrQKtAq0CrQKtAq0CrQKTHMF5unh8pBQnpBmK5n6xRpmJS3tXuPYFyqZNTScesEFCxZ4osxqlHXM1vahUrNv+XBcMYeDmxPZihnG1mHzR6jhhILLUUOeVBlrBGP3SlsvWM+s2Zoa1DBxglksFBrgF4FGDWqYRU4QaIZTtDX7hkgN075Qw6SJyRbJlTRSk2XGEqu2HGadsprUI05Xw8esoeHUM5GLbx4cmJQmfhGV+xZ1EmErZhhbh035jHRqOLFwS3zdUJ7astcfp54pySKoQZEWhGAWD44GsWTYdqf41GCYJjJvLPsaHx+3ks2yNv6FD2h2ytNilpqNw89YtIceeohshhNTmATZGPZZBIL1SWJa0qcWcQQZko1hxuJIks1wTIUgTX4R1GjW0AgiVzLlkGciEIQ8LWbRtkSSIZ6xzmtfu2c4aQoZ07lSZKSDBkWatdRqdidVQyMImDW74wBlS/KQJGaeY5aUz0INE7kySZqVu1cKSg+TrByKqGTSlGSNJkHkIhNBJdlihgg0McnyM0CQJJvhxBRBNIhhn0WQZMxyGroVUBwXRSXZKFGfRUC2to/QjSNjst3gsI9Qea1tXZkkQRjeazgSmsPxgQgaQXYgPjzEwXSo4aluBAENusE+H83B+2ZTPLZmU6TPwaHZN5viaPatYVqCjOlc/AzQoEijQK2GSao+ScwaTRygLI08Isk8xywpnwWa/CIqk6SZ2b27XV5wnh90MthuO1IbkeGYwrANy68BcpEWamFryEUmAtRsbbtgsvwMEAiyGU5M4QRi2GeDw/YRunG0mt3RALO7dqSPFhg52w1W0iyxL3CKqNesYeLYly3ui4BWQ0ZDrkEww+b5OJDnxGxkWCQjBGJVxgaNzXBMIcTW/CIqmTQDlYLIeSYC5DlptjJJfJrAyQMHyBZpRU5SwKQJKTLSQQiMnO0Gg8Z2g8M+AkSc09CtQLcs4ffZWOUi9hG6cWRMthsc9hFqaBZiBvgZBIfNcNIUWs3uaICZFvY5aIE+QopX0vDtC5wi6jVrmDj2ZYv7IqDVkNGQaxDMsHk+DuQ5MRsZFskIgViVsUFjMxxTCLE1v4hKJs3ASEFTKR6C3Uia4sxbWHrNm1fm0FiwYIE9ODWo0Vy0aBHa/Pnzi4K2xizSEKg5M6eISWkiVwo6VJEpycrj2Be5qIkGxX0R0Ahy8kCTYQ2TDnINM2isJXlUbk2qkmm7eqazULYkDzQfBzZPI1W/NSZ+XtAsTnFfNEBDrnn/+NRgWlJEfZKVTDSbTl2SxBaG5kYv+0/UJ0t5dDIEK5N8dE3pX6FZYi2UJBRpCJUX0YX21sUHTkO3AkqtPvWXRs2VsYhJaSJXChbfkHScqPI49kUuaqIB5SLQCNbQZFjDJFWvSRDZkjwqtyZVybRdPbMySTSouTT1W2M6lGzzwLF1nhOzaMg1SfrUYMaqvK1PMsP0AZdbbITG6Uuy/ad+atXQKtAq0CrQKtAq0CrQKjC7KtCynb4KtHZ5+mrddmoVaBVoFZhdFbjzK1/91NXXNqjA7LpwLdtWgVaBqa1Aa5entp5NrVVgqAIt0Cowaytw8aUff8ObTmtQAdfwF5+zG9vQKtAqsA1WoLXL2+BFb0duFWgVaBUoV+Ceb34lj6/fdkueELPf/tptd39lTfgZ+91/+vI37vgCm+GYQkD72q2r+UUEuUhD+NZXbwVOBs/d/ZfLVZvzjK10wEceeeThiddW2r9t+qm09wAAEABJREFUu61XoLXL2/o7oJ2/VaBVoFWgVaBVYMZW4JFHHhmfeD008eLO2FRbYnO4Aq1dnpsXt52qVaBVoFWgVaBVYA5UQJOsY54/f/6CBQue9KQnzZvX+pY5cFVn3xHa2272XbOWcatAq0CrwDZVgXbYbaQC2mJ4+OGHx8bGWKc2hOiSWR1za5eVpWH6K9Da5emveduxVaBVoFWgVaBVoFXgCRUYf+zlcbKJsBzQMbMJhpCGzWkVmIYKTGG7PA3Zti1aBVoFWgVaBVoFWgXmWgU0xzpgT449P54/f34cT8QT5eSH46mzvtpUDJttFZieCrR2eXrq3HZpFWgVmF0VaNm2CrQKbKkKRMsbLXLsIcLRKOuPNc1gGMHwkUV0yeGgGTa0CkxbBeZ55+Xh3ektm+eYxZE0p4j4ubBIQ6jfGhO/iPokMSs10ZBrtsZ09jyTFGDmaTFbyUSDWJK3aIEiTYaQp8VsjeCkmPat1AxmiOctJuQ5MVu5NZqPAxur+iyCfdk+QjeO2R1mfMwaTRzI6MQUDsHwi9apixyE0GT5eUy5oO0cp2ZrzEoaQeQiqFUySVUy6zVVErl4C7IvpgRqUMm0L9kaQTTkIhOncmvnpVkUREAjy8kDBzPPiVnMyiQxKzXRkEM/Y3EwnT3DMYUGmPwiKplo0KcmpbGxsQ0TLxxDLidBJPwQGZv4DWadsSRNrVu3bv369QiGQeB3IQjdSJ+PBn2zKR4b1TPTwoxDEzKENGVfSMM+BwfUp48wEX8Ix75sDPMWM09Is5g1mjiQVvU5OAT7Zgfik/p8UR5YHkMiaYofwZF2nrdjHlLPE2LWpZpaZnyKHCP087ZmaxkqQQ3TXsiVW9MES/IIQTZPc2r7bt0k8xnGrCRrTo2Mhuxc/AxUBpPNcGIKDWoE7QuxKm8JQp5jVno1NEw0FxH4GRCUIWQ4aQqNbBr2OTjQN9uNE5RAN9LnO0ilJlqNJg5m33bdeGWSBN3pugszvuOYLb6FZAiUkfPYQknWbC1DyKcXs3Hq8DPWppWVVMBKpgwhs2maqk9yapnOIkPXMWWScWq2VkaCNUwbIVduTRMsySME2TzNqe07bUna7sEHH1y3bmPLa1NvHrvLUAfMRrY4/C5EkHXMDo7DGsbCLi18s6YsiWGfDR22j5DiBKFG0L6QFmYcgpAhxJT0amjIaIDPzwBBhpDhpCk0mmnY5+BA32w3TlAC3Uif7/pWaqLVaOJg9m3nfZhm80nOW5J9LV682J+DsFnWEoSFCxd6Q+dpMYtcqblg4hWrMrZScNGiRfVJIvtTIcqZfU0hTOS4gJ+HrSsF0SorSbO+ksj5DM3iOI5D8TNAsK88M5w0RRDSsM9RcDQJ9BFSHAczDfucSSUZmpb0qUU8aFKNYcbK0EUsloiUSiI/KpX9FzUJTGGSISiH7LZLECTJ5mkxS1OGEMM+Sw2T7SOkeGxdFFQZd70iLWRDM/yMpenS1GiGYJFJ0DdBkRYpef+oT5FMszJJgkU1W1OTJKcGNTW3KU0oCmKqJJtnIji14+RpMYtcqSlDiFUZWyno2tUniezjQDmzrykEGQI/D1tXCqJVVpJmfSWRZShhRwOO4dKJV3IibgoEt99+e9bCiLOGIGJfp162bNkOO+zAkhEfCTQYOdUNEkej3A2O9HEwR051g44gScXsBvv80LSkjxDxoEk1hhkrQygKkpIkZkYqTTmLBIqaOAQpp4V9TggWmQiSZPt0unGaMoRucNinhskOT4m4iTkFB2LrPsHC7y77INEqAg2KtCAEM2xERlp5j4z3BYuCRcKwcnFJEMIOL+9GghO2Gx/wEQID8ZHDYLIjZ7tBHOhGRvo1nFiICeHnbdDCZpgIgQwnpnyXY4aft2iQ58QsTU6R7D2JA8h51HBCoZ6JjwycDIIQNkMzhQMOxc8AJzM7cqpmCQ6MXD4QRIOB4MAQAQaCmSEyZAimEIBTBFogz8RRbTZPi1m0QAzzFjNPSLNFJgIkfsYJWtg8rciJ5fW0SibZYIY17IPr0jc1Ml4ULBKGZYtLghB2eHk3Epyw3fiAjxAYiI8cBpMdOdsN4oAnduPj4yyMj497bofTrTMOCKapGAbfPVmLY5YjDvwighY2Q0YIZDgxFbuHn7eVgkRosvhsBmqFAxlOTOEEYpixaJnZgSlkGAgODIMQdmBqYIgDDjUQHxjiDESKw5olOFCUQkADzjAK7fLwghZpFWgVaBVoFWgVaBVoFehWILrAiPA1wdoOz+08fRTUBAuK8DnAMQQOMoupRRbRVFnICgaT09AqsHUr0NrlrVv/rb97y6BVoFWgVaBVoFVgkyug2R0bG/MImY3uNuxAv4umFQYbBYETHFN8MCvCIuiwRQzZhlaBrV6B1i5v9UvQEmgVaBVoFWgVmJoKNJXpqUC0szracDS4sW9qfA3NaqBZLa/HxiDIZxPNEGJKHDmg+cYhm6bMNrQKbMUKtHZ5Kxa/bd0q0CrQKtAq0Cowmyqgi9UiRzvL5+h3F0y8HEOETdDsLly4kBXXOosjsxTYgFltcfhkEAwF+RDxZlsFtnoFtkq7vNVP3RJoFWgVaBVoFWgVaBWorUA0uJpjT39ZTW3qZXW3VMJydMZmORCrRDgpaKEe2uxIRKOMnARH0lqwVWCaK9Da5WkueNuuVaBVYI5VoB2nVWDOVkCbCx4M65IdUhfLgqZWO8vyEVjoDsPXKMfaREbjsw2tArOrAq1dnl3Xq2XbKtAq0CrQKtAqsMUroD/W6XqQDDbTE0Nql/mC0fjqifnQHWJ6iqxpDvARGmZDBVqOoyvQ2uXRdWnRzayAGyhspkhb3irQKtAq0Cow/RVw9wbtbzS7kUC0yPpgw/ARwBCZ5QMnzSIHBBtaBWZ1BVq7PKsv34xL3k0znkmwMOPymzMJtYO0CrQKtApssQq4k9OOTpfVNBtGMBri8AXNsmmIuXDhwuCIN7QKzJkKzNPTbD58VEBRNl+qq0ATupGRfg0nFvqRF8LP23rNSmbQ/KlWcV8ZQp625WYjz7w+jmvNdmkbNmxYt24d68/vIh6nGKDF1LBFg+H4cCRkh+PDEcxKTTQYVhiIuHw1NKvQlEgC/AzQcCDDSVPIyc879YI1mjjOwuY3jdl6WiWz/iyYlZqTolWS4/h5S0qSeU6aRYY07HNwoG+2G7d1DRPH5e4uzPjImdk0hQZpuJkOKahPsnI7mlAk13BCRMEh/Lyt16xkBs39qrivDCFPMxscgtD1Y8p2ETTks5V4nNy/AMe1Zvspj8/U0yqZ6VyP79HjYVZqokGPzONhpa6hWYAGnDxwJAl5Wswih1O09YI1mjjTfLm72+XPMk+Lk8H69esVK0NIU2h+oEzDvIOcJ8Ssxkv7FX7e1gjGWSqTRPZmzW8aszKE8PO2RtC+3i6uWV4qZu1bqYlJOVZlLJqaF5kIklTzBydeIcjlhAIRPlpYScasYQbWQoYQUzj0QzwiIy2OMkpy5OxAEBkGgsNDm9qdHZ4aiKApkYMPxAeGaD6rRVqsQqvZGocsG6sytpKmMpJkM1JpqjJJWxOsSbKSZl8fbbIpk4yDbLb4npSe3Ys0Ut5myJw87OtRXA2TDs2arR25Mkm7ky3CvpIs0oLgTV6ZpDxjScaqjN0zhDSF5nKnYd5BzhNiVhlrkkSuEYyzVCaJXHl1ZAhyKKJG0L6uoPvksJopwQceeIANqI+Dx+WOHMI3a6+I8C3ks/w80GgWmQiShLxazCJLJiUWwZHW7jByqhvEqUkSRxnVp7u2z0eGvtkUdxa7synS59TT3MnVp0+nG0er2Rqnfnfk7hYjfZWRJDtydiBYmaQMCfbt3t0uQ7P1PJ/nPPzZSp4Qs+6wCxYsCL9oaeIXaQiYbBGVamiVSWLWbI0WqMmwRpAOwSlP0tZAPA9bQx+nG3dr8CZzdwA3MlNyXrRoEZs2CilDDouTRz0NMy8Vs91kItJnCULfbIo7BRqbIn1ODcfaUGP5RaDVyOJAUQ0BjSYnDxyVZPO0mK3URCYInDzqBSebZHF3hEA+Q7NobBFokizSglB5cJqBWJWxBDOz3an4w/RupM+v3BqtcvdKGsEpr6Qz1u+OXER9kpg1W6MFarauEaRDcGQlY7mbfNzq4yaPbGiVWW8Slj8AHHEYiA8PMWE4PhDBoTYyyQGmIWbw+XnU0zDzUjErQ7uHn7cEIc8xSw2N5eeBA3mO2VBj+UWg1WjiQFENAY0mJw8clWTztJit1EQmCJxheJOnYF5w3vbZ19KlS63PUjZOBk1jvnFQ8Q9NS4pE7ZfPZJFGSn1raOrlx5EiE2Hx4sWVmpJEtiSPJUuWEFy2bFmR5sq5N+VpMWtfmuFnrK0rkySo4OqZUTNlUxkq5g477GBIH5Yte/xohuLLlm2M2LpG06aYYGEe1NDw8zRniSTztJilCeFnrHPZmnKGE1PUXEeFimGfpSZJH4c+QjdOrWZrHMxifShLEpmTB5pPDZunxayzqFL4GWtfgjXMSkFqklTPzKZpimZNfSRJsIZZWXA0N8kaQan6fNUwZejs+EVUCkrSY5iiWhBohpO3lUk6r0uTlzIbNJXk14CmJcPMgUh9kko0sHZ4aEfF8Z4cnhqOeKdVakoSeVhhIOKTRXDZso134IGp7hDNbcotqBsMf9myZTvuuCPfdjbFFKHpXIJ84AwDE9+q4amBCI63bggOTHWHaHp0PU032OfbukbTppjQp5Pi1NDwU2SkI0lldMVHzg4EacJAcHhYX0lqkhxWGIjgSNLHYSA+cuhaO9TIqW4QB7NYH0skiczJA82nhs3TYtZZVCn8jLUvwT6mt5bKxPK8YPtP/dSqIVcBtyqfMe9gwDMEN1lvLHCDEGxoFWgVaBVoFZhLFXBvjzs8R0vkng8O6P7PNrQKbGsVmOHt8rZ2OWbWed0Wtcjw0EMP8SHlF/dNw+TwE7rMFGxOq0CrQKtAq8AsqoBG2R0+4KFJ3NgNZ9ERWqqtAlNVgdYuT1Ul56COmyM4mJumpwv+OIPvXsnx1IEP7qFsQ6tAq0BFBRqlVWA2VcDt3bMSGBsbY6Xui4BtaBXYBivQ2uVt8KKPOLK22N0wHiSnaZ0xX68czTGOYRciIILDJsTCmErB5rQKtAq0CrQKzKIKuLG7+bufh+NBCX8W5d9S3cIV2LbkW7u8bV3vkafV12qUPUjgsPwuTVAk4BmDYZrVYfPdT9ku4pbaZXZnm98q0CrQKtAqMCsqoFH2RNlNnjMrEm5JtgpsoQq0dnkLFXY2yWqRpeuGGA8PtLnRB6euV8S9Mob6ZmQQBI4pjiWhI4IZ4Dds5Qq07VsFWgVaBVoFWgVaBTavAq1d3rz6zYnVml3n0OCymmZW4xtBPsTTBZYPZpO1SgMNgmmJBhrZFFpDq0CrQKtAq0CrwNRUoKm0CmylCrR2eSsVfuZtG82uHhdkF0NdbzxyFgF9MBvQH3PQgGMKOA2tAq0CrcqZMi0AAAfNSURBVAKtAq0CrQKtAnOpAq1dnktXcxPPEm1udL0kYhjdcLd1NjUM5GipPZYO8nbbbTdMa5FWgVaBVoFWgVaBVoFWgVlagdYuz9ILN5VpR5sb/THdGEb3zI6NjY2Pjz808QqOFhmtdcmK0NAq0Cow5yvQDtgq0CrQKtDa5W3iPaDNHZ94cboH1g2LsBHkc6Jd5gDfY2OOKeDoklkwxTa0CrQKtAq0CrQKtAq0CsztCsybaKJ6jUeKeim2l/HYRPRSj40K/0YuMCam0WDCzRnpPfzww2yONDFHzeWccAuGmoMXSBPTNJEn3JzBwYwntTne+Dha5dahyWYE7bhu3ToWh12/fr1h+BxYv369eOy4YcMGuw8IiihaQItsFvDF6RQR5CINgSAyJ4+gFZkImJBXi9nK44QmG6sy1r4qxmY4pkjhAL8ISRY5QSBIOfyMRYMMIaZI2ZqNYd5WMqlh5qVitpIWgmysyttKTcWpFMTM7xizaJVb43v/1OxOE/CLsHUN06a2LqoFoZJpX4glGWtrSbIZTkxRq9waH5ktAg2KNOmhsUUmWmWS1By8KIhAE5mTBw6mG3ueZhatcuvQZK3KAIEmm+HEFE4NE02GmLEqb4Oc58QsQeTwMzZoRSYCJmSk0lTlcUKTTQv7HPvW0HAwoU+nG5dkd5jxCVLOEGIKDcLPWFK2ZjOcNFXJpIaZVg04PqQpsQzNqkK77POWX08iICG7hp+3lUxbOwNyXi1m67euP47dQzxv0WqSxKncmmAlkyayQmUy1BCbVZ/4DQo+vrY4HJZC6LCge37wwQcjzgbEAzFkrQJOEWjWFmk4lUw0KAoiKGMlEw0sKUKeUEOz+9e+9rXl2dff/d3fvf/972ezrEcn3zPxenTQ/y9qiOecc04/5dGZepokzz333EeXZf/13ve+t4YpSahhEsTM7rlxEu28886rEcR+3/veV8PEqSxRpSA1lay5NMuXL6cp1SIUh2yRhqA+bBH2lWSRFgTkcPI2KpnnxGyNoALG5Y4leYtceXCVhLyaWYKVSaKBJUWojxMVabaWIRSZIYifZ6LJEPK0mEWW5Lvf/e4Y9lmbYkIfIcVxat66aDK0dVqYcRQHMoSYoonGxjBj0WqSRPM2q2HaCxk4eagkWmWSmHk1szg+2iy/CGeBIo0amlSLzHqaJGtObUfvihqmJKGP6Qsd4jvdt3amE5i3pPTSZi1evLjEWrJw4UI9WZGGQI0mJ4+lS5f6c3+yeVrMeupJNvyMpVazNYVFixbNnz+fU0RlkpMSrEzSke2eMrSFobTBlHiyHGdX0mXLloljhr/jjjuKbL/99oI77LADSwFZRNywD2h26Zvtxu2L3I2M9KWExo6c7QYJQjcy0ncKGdIcOTsQrGRKz9bswPLhIdqee+7pJ5Nbs6/bbrstOz84uWbNmsHQlh9viSTXrJnig0gSKouxZk3V7mvWVNEqN0W7/fbb2UqsWVO1+5o1VTSbrllTxawvI80px5o1U5/kmjVVmvVnWbOmLKiMUK+5VZgyhDVryseRHiY7/bAvTP++k91x5ic52QzXrKl6Y9QVqpa1JZJcsyZ3kGc961nPf/7z40tcJ5D5fp8Lv7vsBwLtsma9Bsg1tElx6nevZw4nED/0dOPds/jZyE9IIrGFYZfJj3hYNBFNOduF94o+Dzjd+IBvOYTUwNQmD+vVbG2XsJzpRH2Ssjr11FMvL70++tGP/sM//ANbIm6cv/jiiy+77LKNXvYfnEsuueRjH/tYlrVxEg15o5f9B23FihU1TDIrV66s2Zoa2RomQWTKeSjOlkjSpfn4xz+e39qsJCvPIskaQZof+chHapiXXnqpSuIXQbAyyYsuuqioFgTv3nDytjJJ51VJNq+GgKaSeVrMBjn8vHWtIc8xq4bebGT5GaApeGV9vMOdKKMWUzaVoWLGMGMJSjJDiCk0SdZsjW/fGk0Hx6RsSR443roOladRU8aarekg0+TkIUmVlECeZhYNKpOs2ZomGk1OHpNK0sHzamZtqpIsvwgFr6kPjuNItSiIhlxD89GuYZLy1q3ZmprdM8zddtvNVzbk+4q50C475FyFi6dLjtNFNywSQw6Ej8PX/up0PU+NoEhq7/gpyMFkG1oFnlCBNmgVaBVoFWgVmN4K+PqG6d2z7bYpFWjt8qZUbXrW6HE9JNYlx3bR4/pciftTflMQs9piz4MRTAkGH5MjzgoaQuILNrQKtAq0CrQKtArMzQrM7FPF17Gvcl/KMLOTbdltrEBrlzdWYWb+ownWAUe/K0ND1mdM78s3FUMtcgzTVCwxREADjg8kcMxGhN/QKtAq0CrQKtAq0CowbRXwRRxdcnxH27d9IyvCzEdrl2f0NdLays+ni02fKM3xggULTEUkPnIsiKS4JSKsSPA5CxcuxBGcIWhptAq0CrQKtAq0CszhCnikFYgz8jm+iH0jA993OtswwyvQ2uWZeIF8nHS6rOT0ysn3ARNJiM+Y2RThWGUJB9IUprUg2NAq0CrQKtAqsCUq0DRbBboV8HXsT4MT4qtZi+y5FZu+kX1Bd1c1f2ZWoLXLM/G6+FBBZBafKJ86w66fhhyz8XnTH/tksh4nB8w2tAq0CrQKtAq0CrQKTHMFfI/7dvbFDbb21QzxZW0Ihmw3YtgwMyvw/wAAAP//H0K+4gAAAAZJREFUAwD6ovIQvniH+AAAAABJRU5ErkJggg==;" parent="1" vertex="1">
          <mxGeometry x="370" y="20" width="954" height="266" as="geometry" />
        </mxCell>
        <mxCell id="JWv6UWEkngOyCVGFAQf5-3" value="&lt;div&gt;哪些卡牌 是要投入&lt;/div&gt;&lt;div style=&quot;&quot;&gt;&lt;br&gt;&lt;/div&gt;" style="text;html=1;align=left;verticalAlign=middle;resizable=0;points=[];autosize=1;strokeColor=none;fillColor=none;" parent="1" vertex="1">
          <mxGeometry x="100" y="100" width="120" height="40" as="geometry" />
        </mxCell>
        <mxCell id="Z25gYVyyElO69id8OYqN-31" style="edgeStyle=orthogonalEdgeStyle;rounded=0;orthogonalLoop=1;jettySize=auto;html=1;exitX=0.5;exitY=1;exitDx=0;exitDy=0;" edge="1" parent="1" source="JWv6UWEkngOyCVGFAQf5-4" target="Z25gYVyyElO69id8OYqN-3">
          <mxGeometry relative="1" as="geometry" />
        </mxCell>
        <mxCell id="JWv6UWEkngOyCVGFAQf5-4" value="全部刷新" style="rounded=1;whiteSpace=wrap;html=1;" parent="1" vertex="1">
          <mxGeometry x="150" y="500" width="100" height="40" as="geometry" />
        </mxCell>
        <mxCell id="Z25gYVyyElO69id8OYqN-26" style="edgeStyle=orthogonalEdgeStyle;rounded=0;orthogonalLoop=1;jettySize=auto;html=1;exitX=0.5;exitY=1;exitDx=0;exitDy=0;entryX=0.5;entryY=0;entryDx=0;entryDy=0;" edge="1" parent="1" source="JWv6UWEkngOyCVGFAQf5-6" target="Z25gYVyyElO69id8OYqN-6">
          <mxGeometry relative="1" as="geometry" />
        </mxCell>
        <mxCell id="Z25gYVyyElO69id8OYqN-29" style="edgeStyle=orthogonalEdgeStyle;rounded=0;orthogonalLoop=1;jettySize=auto;html=1;exitX=1;exitY=0.5;exitDx=0;exitDy=0;" edge="1" parent="1" source="JWv6UWEkngOyCVGFAQf5-6" target="Z25gYVyyElO69id8OYqN-25">
          <mxGeometry relative="1" as="geometry" />
        </mxCell>
        <mxCell id="JWv6UWEkngOyCVGFAQf5-6" value="遍历每个卡牌槽位权重" style="rounded=0;whiteSpace=wrap;html=1;" parent="1" vertex="1">
          <mxGeometry x="130" y="750" width="140" height="40" as="geometry" />
        </mxCell>
        <mxCell id="JWv6UWEkngOyCVGFAQf5-7" value="玩家是否有可生效卡牌" style="rhombus;whiteSpace=wrap;html=1;" parent="1" vertex="1">
          <mxGeometry x="450" y="320" width="100" height="70" as="geometry" />
        </mxCell>
        <mxCell id="JWv6UWEkngOyCVGFAQf5-10" value="依次按格子随机" style="rounded=0;whiteSpace=wrap;html=1;" parent="1" vertex="1">
          <mxGeometry x="600" y="335" width="110" height="40" as="geometry" />
        </mxCell>
        <mxCell id="JWv6UWEkngOyCVGFAQf5-14" value="第一个是刻录" style="rhombus;whiteSpace=wrap;html=1;" parent="1" vertex="1">
          <mxGeometry x="760" y="310" width="80" height="80" as="geometry" />
        </mxCell>
        <mxCell id="Z25gYVyyElO69id8OYqN-33" style="edgeStyle=orthogonalEdgeStyle;rounded=0;orthogonalLoop=1;jettySize=auto;html=1;exitX=0.5;exitY=1;exitDx=0;exitDy=0;" edge="1" parent="1" source="Z25gYVyyElO69id8OYqN-1" target="JWv6UWEkngOyCVGFAQf5-6">
          <mxGeometry relative="1" as="geometry" />
        </mxCell>
        <mxCell id="Z25gYVyyElO69id8OYqN-1" value="筛选卡牌" style="rounded=0;whiteSpace=wrap;html=1;" vertex="1" parent="1">
          <mxGeometry x="130" y="670" width="140" height="40" as="geometry" />
        </mxCell>
        <mxCell id="Z25gYVyyElO69id8OYqN-32" style="edgeStyle=orthogonalEdgeStyle;rounded=0;orthogonalLoop=1;jettySize=auto;html=1;exitX=0.5;exitY=1;exitDx=0;exitDy=0;entryX=0.5;entryY=0;entryDx=0;entryDy=0;" edge="1" parent="1" source="Z25gYVyyElO69id8OYqN-3" target="Z25gYVyyElO69id8OYqN-1">
          <mxGeometry relative="1" as="geometry" />
        </mxCell>
        <mxCell id="Z25gYVyyElO69id8OYqN-3" value="获取玩家卡牌数据" style="rounded=0;whiteSpace=wrap;html=1;align=center;" vertex="1" parent="1">
          <mxGeometry x="130" y="590" width="140" height="50" as="geometry" />
        </mxCell>
        <mxCell id="Z25gYVyyElO69id8OYqN-4" value="&lt;div&gt;1. 获取玩家已购买卡牌&lt;/div&gt;&lt;div&gt;2.获取玩家每个类型的&lt;/div&gt;&lt;div&gt;装备下是否有未解锁的类型&lt;/div&gt;" style="text;html=1;align=left;verticalAlign=middle;resizable=0;points=[];autosize=1;strokeColor=none;fillColor=none;" vertex="1" parent="1">
          <mxGeometry x="290" y="585" width="170" height="60" as="geometry" />
        </mxCell>
        <mxCell id="Z25gYVyyElO69id8OYqN-5" value="1. 找到所有可重复购买的&lt;div&gt;2. 筛选出未购买的&lt;/div&gt;&lt;div&gt;3. 筛选出玩家装备类型&amp;gt;=筛选条件&lt;/div&gt;" style="text;html=1;align=left;verticalAlign=middle;resizable=0;points=[];autosize=1;strokeColor=none;fillColor=none;" vertex="1" parent="1">
          <mxGeometry x="290" y="670" width="210" height="60" as="geometry" />
        </mxCell>
        <mxCell id="Z25gYVyyElO69id8OYqN-27" style="edgeStyle=orthogonalEdgeStyle;rounded=0;orthogonalLoop=1;jettySize=auto;html=1;exitX=0.5;exitY=1;exitDx=0;exitDy=0;entryX=0.5;entryY=0;entryDx=0;entryDy=0;" edge="1" parent="1" source="Z25gYVyyElO69id8OYqN-6" target="Z25gYVyyElO69id8OYqN-7">
          <mxGeometry relative="1" as="geometry" />
        </mxCell>
        <mxCell id="Z25gYVyyElO69id8OYqN-6" value="随机出槽位卡牌类型" style="rounded=0;whiteSpace=wrap;html=1;" vertex="1" parent="1">
          <mxGeometry x="130" y="820" width="140" height="40" as="geometry" />
        </mxCell>
        <mxCell id="Z25gYVyyElO69id8OYqN-12" style="edgeStyle=orthogonalEdgeStyle;rounded=0;orthogonalLoop=1;jettySize=auto;html=1;exitX=1;exitY=0.5;exitDx=0;exitDy=0;" edge="1" parent="1" source="Z25gYVyyElO69id8OYqN-7" target="Z25gYVyyElO69id8OYqN-10">
          <mxGeometry relative="1" as="geometry" />
        </mxCell>
        <mxCell id="Z25gYVyyElO69id8OYqN-13" style="edgeStyle=orthogonalEdgeStyle;rounded=0;orthogonalLoop=1;jettySize=auto;html=1;exitX=0.5;exitY=1;exitDx=0;exitDy=0;" edge="1" parent="1" source="Z25gYVyyElO69id8OYqN-7" target="Z25gYVyyElO69id8OYqN-8">
          <mxGeometry relative="1" as="geometry" />
        </mxCell>
        <mxCell id="Z25gYVyyElO69id8OYqN-7" value="是否存在&lt;div&gt;卡牌类型的卡&lt;/div&gt;" style="rhombus;whiteSpace=wrap;html=1;" vertex="1" parent="1">
          <mxGeometry x="145" y="890" width="110" height="60" as="geometry" />
        </mxCell>
        <mxCell id="Z25gYVyyElO69id8OYqN-18" style="edgeStyle=orthogonalEdgeStyle;rounded=0;orthogonalLoop=1;jettySize=auto;html=1;exitX=0.5;exitY=1;exitDx=0;exitDy=0;entryX=0.5;entryY=0;entryDx=0;entryDy=0;" edge="1" parent="1" source="Z25gYVyyElO69id8OYqN-8" target="Z25gYVyyElO69id8OYqN-9">
          <mxGeometry relative="1" as="geometry" />
        </mxCell>
        <mxCell id="Z25gYVyyElO69id8OYqN-8" value="按照存在的类型，以及稀有度，随机稀有度卡" style="rounded=0;whiteSpace=wrap;html=1;" vertex="1" parent="1">
          <mxGeometry x="137.5" y="1020" width="125" height="40" as="geometry" />
        </mxCell>
        <mxCell id="Z25gYVyyElO69id8OYqN-19" style="edgeStyle=orthogonalEdgeStyle;rounded=0;orthogonalLoop=1;jettySize=auto;html=1;exitX=0.5;exitY=1;exitDx=0;exitDy=0;entryX=0.5;entryY=0;entryDx=0;entryDy=0;" edge="1" parent="1" source="Z25gYVyyElO69id8OYqN-9" target="Z25gYVyyElO69id8OYqN-16">
          <mxGeometry relative="1" as="geometry" />
        </mxCell>
        <mxCell id="Z25gYVyyElO69id8OYqN-9" value="保存已随机的卡&lt;div&gt;并从随机池去除&lt;/div&gt;" style="rounded=0;whiteSpace=wrap;html=1;" vertex="1" parent="1">
          <mxGeometry x="136.25" y="1090" width="127.5" height="40" as="geometry" />
        </mxCell>
        <mxCell id="Z25gYVyyElO69id8OYqN-14" style="edgeStyle=orthogonalEdgeStyle;rounded=0;orthogonalLoop=1;jettySize=auto;html=1;exitX=0.5;exitY=1;exitDx=0;exitDy=0;entryX=0.5;entryY=0;entryDx=0;entryDy=0;" edge="1" parent="1" source="Z25gYVyyElO69id8OYqN-10" target="Z25gYVyyElO69id8OYqN-11">
          <mxGeometry relative="1" as="geometry" />
        </mxCell>
        <mxCell id="Z25gYVyyElO69id8OYqN-10" value="选择其他类型的卡" style="rounded=0;whiteSpace=wrap;html=1;" vertex="1" parent="1">
          <mxGeometry x="335" y="900" width="125" height="40" as="geometry" />
        </mxCell>
        <mxCell id="Z25gYVyyElO69id8OYqN-15" style="edgeStyle=orthogonalEdgeStyle;rounded=0;orthogonalLoop=1;jettySize=auto;html=1;exitX=0;exitY=0.5;exitDx=0;exitDy=0;entryX=0.5;entryY=0;entryDx=0;entryDy=0;" edge="1" parent="1" source="Z25gYVyyElO69id8OYqN-11" target="Z25gYVyyElO69id8OYqN-8">
          <mxGeometry relative="1" as="geometry" />
        </mxCell>
        <mxCell id="Z25gYVyyElO69id8OYqN-17" style="edgeStyle=orthogonalEdgeStyle;rounded=0;orthogonalLoop=1;jettySize=auto;html=1;exitX=0.5;exitY=1;exitDx=0;exitDy=0;entryX=1;entryY=0.5;entryDx=0;entryDy=0;" edge="1" parent="1" source="Z25gYVyyElO69id8OYqN-11" target="Z25gYVyyElO69id8OYqN-16">
          <mxGeometry relative="1" as="geometry" />
        </mxCell>
        <mxCell id="Z25gYVyyElO69id8OYqN-11" value="是否有" style="rhombus;whiteSpace=wrap;html=1;" vertex="1" parent="1">
          <mxGeometry x="342.5" y="960" width="110" height="60" as="geometry" />
        </mxCell>
        <mxCell id="Z25gYVyyElO69id8OYqN-24" style="edgeStyle=orthogonalEdgeStyle;rounded=0;orthogonalLoop=1;jettySize=auto;html=1;exitX=0;exitY=0.5;exitDx=0;exitDy=0;entryX=0;entryY=0.5;entryDx=0;entryDy=0;" edge="1" parent="1" source="Z25gYVyyElO69id8OYqN-16" target="JWv6UWEkngOyCVGFAQf5-6">
          <mxGeometry relative="1" as="geometry">
            <Array as="points">
              <mxPoint x="50" y="1180" />
              <mxPoint x="50" y="770" />
            </Array>
          </mxGeometry>
        </mxCell>
        <mxCell id="Z25gYVyyElO69id8OYqN-16" value="下一个槽位" style="rounded=0;whiteSpace=wrap;html=1;" vertex="1" parent="1">
          <mxGeometry x="137.5" y="1160" width="127.5" height="40" as="geometry" />
        </mxCell>
        <mxCell id="Z25gYVyyElO69id8OYqN-20" value="有" style="text;html=1;align=center;verticalAlign=middle;resizable=0;points=[];autosize=1;strokeColor=none;fillColor=none;" vertex="1" parent="1">
          <mxGeometry x="170" y="948" width="40" height="30" as="geometry" />
        </mxCell>
        <mxCell id="Z25gYVyyElO69id8OYqN-21" value="有" style="text;html=1;align=center;verticalAlign=middle;resizable=0;points=[];autosize=1;strokeColor=none;fillColor=none;" vertex="1" parent="1">
          <mxGeometry x="290" y="958" width="40" height="30" as="geometry" />
        </mxCell>
        <mxCell id="Z25gYVyyElO69id8OYqN-22" value="无" style="text;html=1;align=center;verticalAlign=middle;resizable=0;points=[];autosize=1;strokeColor=none;fillColor=none;" vertex="1" parent="1">
          <mxGeometry x="400" y="1020" width="40" height="30" as="geometry" />
        </mxCell>
        <mxCell id="Z25gYVyyElO69id8OYqN-23" value="无" style="text;html=1;align=center;verticalAlign=middle;resizable=0;points=[];autosize=1;strokeColor=none;fillColor=none;" vertex="1" parent="1">
          <mxGeometry x="250" y="900" width="40" height="30" as="geometry" />
        </mxCell>
        <mxCell id="Z25gYVyyElO69id8OYqN-25" value="打乱顺序" style="whiteSpace=wrap;html=1;" vertex="1" parent="1">
          <mxGeometry x="550" y="750" width="120" height="40" as="geometry" />
        </mxCell>
        <mxCell id="Z25gYVyyElO69id8OYqN-30" value="遍历结束" style="text;html=1;align=center;verticalAlign=middle;resizable=0;points=[];autosize=1;strokeColor=none;fillColor=none;" vertex="1" parent="1">
          <mxGeometry x="345" y="748" width="70" height="30" as="geometry" />
        </mxCell>
      </root>
    </mxGraphModel>
  </diagram>
</mxfile>
